<?xml version="1.0" standalone="no"?>
<!DOCTYPE svg PUBLIC "-//W3C//DTD SVG 1.1//EN" "http://www.w3.org/Graphics/SVG/1.1/DTD/svg11.dtd" >
<svg xmlns="http://www.w3.org/2000/svg">
<metadata>
This is a custom SVG webfont generated by Font Squirrel.
Copyright   : Copyright c 2007 by Tomas Brousil All rights reserved
</metadata>
<defs>
<font id="BistroScriptRegular" horiz-adv-x="710" >
<font-face units-per-em="2048" ascent="1483" descent="-565" />
<missing-glyph horiz-adv-x="358" />
<glyph unicode=" "  horiz-adv-x="358" />
<glyph unicode="&#x09;" horiz-adv-x="358" />
<glyph unicode="&#xa0;" horiz-adv-x="358" />
<glyph unicode="!" horiz-adv-x="647" d="M231.5 92q-4.5 53 30.5 96t86 43q123 0 133 -129q4 -51 -31.5 -88t-84.5 -37q-55 0 -92 31t-41.5 84zM328 414l57 983q51 35 150 41q109 4 100 -58l-180 -962q-14 -37 -57 -38t-70 34z" />
<glyph unicode="&#x22;" horiz-adv-x="512" d="M121 1341q88 63 140 40t52 -115q0 -113 -59 -246q-61 -137 -115 -84q41 217 -18 405zM408 1341q88 63 140 40t52 -115q0 -113 -59 -246q-61 -137 -115 -84q41 217 -18 405z" />
<glyph unicode="#" horiz-adv-x="1462" d="M135.5 473q14.5 41 61.5 41l227 -2l119 434l-240 2q-16 57 -1 98t63 41l215 -2l120 441q70 53 127 30q37 -12 27 -51l-121 -420l408 -4l121 445q70 53 127 30q37 -12 26 -51l-123 -424l244 -2q23 -66 -14 -104.5t-95 -36.5l-174 2l-125 -434h242q23 -66 -14 -105t-94 -36 l-172 2l-127 -447q-45 -29 -78 -34t-47.5 12.5t-3.5 50.5l112 418l-416 4l-129 -451q-45 -29 -77.5 -34t-47 12.5t-4.5 50.5l115 424l-250 2q-16 57 -1.5 98zM569 510l416 -2l117 432l-408 4z" />
<glyph unicode="$" horiz-adv-x="802" d="M72 203q0 76 40 130t101 54q66 0 66 -39q0 -6 -16.5 -61.5t-16.5 -110.5q0 -100 80 -127l57 483q-6 4 -35 27t-37 29t-33.5 27.5t-33.5 31.5t-28.5 34t-29.5 40l-21 43q-13 27 -18.5 52.5t-9.5 57t-4 66.5q0 203 104.5 342t254.5 180l38 330q33 29 65 35t49.5 -9.5 t12.5 -45.5l-36 -295q121 -8 179 -90t58 -199t-54 -211t-130 -94q-66 0 -66 39q0 6 15.5 51t32 112.5t16.5 128.5q0 121 -66 150l-86 -668q63 -57 97 -93t68 -109.5t36 -159.5q-2 -135 -89 -234.5t-204 -130.5l-39 -315q-63 -43 -86.5 -33t-17.5 62l30 276q-111 12 -177 84 t-66 160zM342 1006q0 -115 72 -203l63 547q-59 -41 -96 -133t-39 -211zM440 55q106 45 107 195q0 106 -60 182z" />
<glyph unicode="%" horiz-adv-x="1390" d="M92 977q0 180 100.5 341t249.5 161q98 0 147.5 -64.5t49.5 -169.5q0 -180 -109.5 -350t-250.5 -170q-94 0 -140.5 69.5t-46.5 182.5zM161.5 25.5q-26.5 31.5 4.5 72.5l985 1356q63 10 90 -14.5t-4 -65.5l-977 -1372q-72 -8 -98.5 23.5zM256 1126q0 -106 29.5 -187 t79.5 -81q53 0 90 89t37 220q0 193 -82 193q-66 0 -110 -65t-44 -169zM762 211q0 -102 50 -165.5t146 -63.5q147 0 251 148.5t104 318.5q0 94 -55.5 158.5t-157.5 64.5q-135 0 -236.5 -132t-101.5 -329zM924 373q0 72 44 131t105 59q88 0 88 -203q0 -113 -35.5 -185.5 t-91.5 -72.5q-51 0 -80.5 71t-29.5 200z" />
<glyph unicode="&#x26;" horiz-adv-x="1253" d="M12 240q0 100 44 187t96.5 138t142.5 121q-70 186 -70 324q0 229 117 349t276 120q111 0 175.5 -74t64.5 -197q0 -33 -6 -63.5t-14.5 -56t-26.5 -56.5t-29.5 -50t-41 -50t-42 -44.5t-50.5 -45t-49 -41.5t-53 -44t-52 -42q117 -287 335 -496q33 82 33 178q0 164 -59 285 q23 29 52.5 39t60 -1t57 -38t43 -78t16.5 -117q0 -180 -117 -340q121 -88 205 -88q55 0 100.5 36t88.5 145q23 18 51.5 8t19.5 -37q-29 -109 -128 -194t-191 -85q-137 0 -273 84q-178 -145 -382 -145q-176 0 -285 98.5t-109 270.5zM219 287q0 -143 78 -218t219 -75 q113 0 203 72q-225 180 -377 507q-123 -141 -123 -286zM416 1087q0 -127 43 -272q213 184 213 420q0 72 -34 105.5t-83 33.5q-139 0 -139 -287z" />
<glyph unicode="'" horiz-adv-x="225" d="M121 1341q88 63 140 40t52 -115q0 -113 -59 -246q-61 -137 -115 -84q41 217 -18 405z" />
<glyph unicode="(" horiz-adv-x="563" d="M145 475q2 406 198 803t511 600q33 18 46 3t9 -58q-262 -229 -406.5 -582.5t-152.5 -720.5q-8 -299 78 -539.5t246 -349.5q-2 -33 -19.5 -49t-50.5 -4q-233 125 -347 361.5t-112 535.5z" />
<glyph unicode=")" horiz-adv-x="665" d="M-162 -367q262 229 406.5 582.5t152.5 720.5q8 299 -78 539.5t-245 349.5q2 33 19.5 49t49.5 4q233 -125 347 -361.5t112 -535.5q-2 -406 -197.5 -803t-510.5 -600q-33 -18 -46.5 -3t-9.5 58z" />
<glyph unicode="*" horiz-adv-x="651" d="M81.5 1088.5q-22.5 48.5 20.5 76.5q135 0 220 2q-53 80 -89 136q-33 57 1 95t106 46l121 -209l84 125q82 106 141 -4q-41 -51 -135 -185q70 2 184 3q80 -4 37 -95q-55 -2 -215 -14q37 -63 107 -180q23 -35 2 -67t-88 -30l-146 216q-84 -121 -127 -177 q-25 -31 -51.5 -25.5t-46.5 46.5q55 78 135 203l-170 -11q-68 0 -90.5 48.5z" />
<glyph unicode="+" horiz-adv-x="1114" d="M143 481q-25 156 84 156l265 -2l34 323q4 33 57.5 46.5t106.5 -21.5l-47 -348h340q25 -41 9.5 -102.5t-64.5 -61.5l-307 4l-46 -332q-4 -33 -55 -33.5t-80 35.5l35 332z" />
<glyph unicode="," horiz-adv-x="456" d="M102 -236q98 102 106.5 188.5t-58.5 127.5q-20 20 -20.5 54t39.5 64.5t101 30.5q78 0 113 -86t-14.5 -209.5t-186.5 -209.5q-33 -18 -56.5 -2.5t-23.5 42.5z" />
<glyph unicode="-" horiz-adv-x="501" d="M31 422q2 31 12 53l377 -2q37 -2 47 -41t-10 -80l-346 -16q-43 0 -62.5 27.5t-17.5 58.5z" />
<glyph unicode="." horiz-adv-x="479" d="M178 92q0 55 33 97t84 42q59 0 96 -36.5t37 -102.5q0 -47 -35 -81t-82 -34q-57 0 -95 31t-38 84z" />
<glyph unicode="/" horiz-adv-x="536" d="M-33 -121l660 1729q72 31 122 14.5t23 -82.5l-704 -1739q-66 -8 -92.5 10.5t-8.5 67.5z" />
<glyph unicode="0" horiz-adv-x="997" d="M129 559q0 227 80 439t214 343.5t282 131.5q156 0 244.5 -142.5t88.5 -394.5q0 -229 -56 -418.5t-143 -304.5t-184.5 -176.5t-187.5 -61.5q-39 0 -77 11.5t-87 49.5t-86 98.5t-62.5 170t-25.5 254.5zM330 618q0 -94 12 -180t36.5 -160.5t70 -119.5t102.5 -45 q121 0 210 212t89 511q0 223 -59.5 353t-169.5 130q-119 0 -205 -201t-86 -500z" />
<glyph unicode="1" horiz-adv-x="727" d="M162 1073.5q-8 22.5 16 46.5l361 316q100 25 138 12.5t34 -57.5l-183 -1385q-160 -61 -151 37q16 227 108 1180l-282 -187q-33 15 -41 37.5z" />
<glyph unicode="2" horiz-adv-x="731" d="M35 37q0 90 45 180q37 16 100 10q203 315 306.5 567.5t103.5 403.5q0 174 -125 174q-43 0 -77 -38t-58.5 -150.5t-20.5 -288.5q-72 -39 -121 -34t-53 59q-18 252 95.5 403.5t293.5 151.5q125 0 198 -63.5t73 -188.5q0 -356 -525 -1018q27 -8 77 -24.5t82 -26t85 -21.5 t86 -12t86 4q25 4 37 -10.5t11 -42t-5 -50t-12 -53.5q-2 -12 -19 -16q-96 -20 -192 1t-195.5 62t-150.5 52q-10 -12 -22.5 -25.5t-27 -31t-22.5 -27.5q-53 -25 -53 53z" />
<glyph unicode="3" horiz-adv-x="798" d="M53 236q0 106 61.5 166.5t131.5 -9.5q-51 -143 -23.5 -248.5t121.5 -105.5q117 0 191.5 109.5t74.5 265.5q0 115 -64.5 166t-201.5 18q-31 29 -35 45t21 47q268 276 268 545q0 137 -90 137q-63 0 -108.5 -92t-47.5 -283q-154 -78 -153 25q0 217 112.5 335t255.5 118 q96 0 158.5 -61.5t62.5 -166t-74.5 -240t-226.5 -259.5q154 25 233 -46t79 -219q0 -186 -138.5 -356t-332.5 -170q-111 0 -193 80t-82 199z" />
<glyph unicode="4" horiz-adv-x="872" d="M34 462q-9 30 13 54l594 942q90 -2 125 -28.5t29 -73.5l-109 -836h143q66 0 72 -47t-18 -92h-215l-47 -375q-59 -27 -111.5 -20.5t-48.5 57.5q8 123 28 338h-393q-53 51 -62 81zM158 516q74 0 179 1t165 1q12 139 63 637z" />
<glyph unicode="5" horiz-adv-x="845" d="M82 203q0 76 40 130t101 54q66 0 66 -39q0 -6 -16.5 -61.5t-16.5 -110.5q0 -61 36 -97t93 -36q115 0 190.5 126t75.5 347q0 315 -368 176q-94 -41 -113 -33q-14 6 -12 35l86 697q2 25 13 42t34 15q250 -18 547 29q27 4 39 -12.5t12 -45.5q0 -106 -90 -119 q-180 -18 -363 -8l-90 -458q139 49 239.5 52t156 -37t80 -101.5t24.5 -147.5q0 -156 -65.5 -304.5t-179.5 -243.5t-241 -95q-125 0 -201.5 75t-76.5 171z" />
<glyph unicode="6" horiz-adv-x="874" d="M102 514q0 225 57.5 413.5t146.5 305.5t191.5 180.5t198.5 63.5q154 0 206 -113t10 -225.5t-115 -112.5q-63 0 -66 39q82 299 -84 299q-152 0 -232.5 -179t-97.5 -493q109 133 271 133q41 0 84 -12t92 -45t79.5 -105.5t30.5 -175.5q0 -207 -120.5 -360.5t-302.5 -153.5 q-135 0 -242 139.5t-107 401.5zM313 557q-14 -217 42.5 -354t138.5 -137q80 0 128 103t48 271q0 150 -54.5 217.5t-137.5 39t-165 -139.5z" />
<glyph unicode="7" horiz-adv-x="731" d="M103.5 1328q7.5 32 20.5 64.5t32 63.5q283 -53 702 -16q39 2 52.5 -26t2.5 -75q-174 -238 -301 -484.5t-185 -405t-146 -433.5q-68 -29 -124.5 -16.5t-35.5 76.5q88 303 245.5 613t356.5 575q-209 -39 -571 -13q-31 2 -43.5 23.5t-5 53.5z" />
<glyph unicode="8" horiz-adv-x="899" d="M63 348q0 53 21.5 104.5t44.5 83t80 77.5t82.5 64.5t99.5 65.5q-137 145 -137 322q0 201 100.5 308.5t266.5 107.5q104 0 191 -85t87 -204t-72.5 -213t-205.5 -197q16 -16 55 -51t56 -52l48 -48q31 -31 46.5 -51.5t33 -47t24.5 -50t7 -48.5q0 -139 -177 -312t-308 -173 q-123 0 -233 127t-110 272zM283 391q0 -141 55 -220t139 -79q102 0 158.5 80t56.5 195q0 25 -6 47t-12 39.5t-23.5 41t-26 35t-36 37t-35.5 32.5t-42 37t-40 34q-188 -152 -188 -279zM381 1174q0 -145 166 -320q154 129 153 281q0 119 -44 177t-113 58q-59 0 -110.5 -49 t-51.5 -147z" />
<glyph unicode="9" horiz-adv-x="874" d="M135 354q4 27 19.5 51.5t41 36t58.5 -27.5q-14 -121 39 -236t137 -115q23 0 52.5 15.5t67.5 59.5t70.5 108.5t56 175t25.5 248.5q-106 -147 -262 -148q-41 0 -83 14.5t-89 50.5t-76.5 114.5t-29.5 193.5q0 225 135 404.5t317 179.5q125 0 210 -122t85 -401 q0 -264 -78.5 -496.5t-208.5 -367.5t-276 -135q-100 0 -170 109.5t-41 287.5zM365 936q0 -125 36.5 -216t112.5 -91q82 0 142.5 129t60.5 311q0 131 -48 212t-124 81q-80 0 -130 -120t-50 -306z" />
<glyph unicode=":" horiz-adv-x="493" d="M178 92q-4 53 31 96t86 43q123 0 133 -129q4 -51 -32 -88t-85 -37q-55 0 -92 31t-41 84zM244 717q0 53 36.5 97t94.5 44q47 0 72.5 -29.5t25.5 -72.5q0 -53 -36 -94t-97 -41q-47 0 -71.5 27.5t-24.5 68.5z" />
<glyph unicode=";" horiz-adv-x="456" d="M102 -236q0 -27 24 -43t56 3q137 86 186.5 209.5t14.5 209.5t-113 86q-61 0 -101 -30.5t-40 -64.5t21 -54q68 -41 59 -127.5t-107 -188.5zM172 727q-4 53 31 96t86 43q123 0 133 -129q4 -51 -32 -88t-85 -37q-55 0 -92 31t-41 84z" />
<glyph unicode="&#x3c;" horiz-adv-x="1052" d="M121 487l43 144l747 297q55 -29 58.5 -80t-56.5 -74l-589 -213l553 -262q6 -76 -35 -100.5t-72 -8.5z" />
<glyph unicode="=" horiz-adv-x="1114" d="M106.5 410q8.5 41 55.5 41l805 -9q29 -70 0 -106.5t-86 -34.5l-758 10q-25 58 -16.5 99zM143.5 784q8.5 41 55.5 41l805 -8q29 -70 0 -106.5t-86 -34.5l-758 10q-25 57 -16.5 98z" />
<glyph unicode="&#x3e;" horiz-adv-x="1052" d="M83 258q-3 51 56 74l590 213l-553 262q-6 76 35 100.5t72 7.5l649 -297l-43 -143l-748 -297q-55 29 -58 80z" />
<glyph unicode="?" horiz-adv-x="731" d="M145 1022q0 217 118 335t261 118q147 0 224 -86t77 -246q0 -104 -37.5 -188.5t-92 -141.5t-109 -110.5t-90 -125t-31.5 -155.5q2 -20 -18.5 -32.5t-52.5 -7.5t-56 32q-2 90 26.5 163.5t70.5 128t85 113t73 146.5t30 198q0 94 -31 151.5t-90 57.5q-74 0 -127 -92t-56 -283 q-72 -39 -123 -33.5t-51 58.5zM262 92q-4 53 31 96t86 43q123 0 133 -129q4 -51 -32 -88t-85 -37q-55 0 -92 31t-41 84z" />
<glyph unicode="@" horiz-adv-x="1624" d="M61 262q0 475 258.5 773t663.5 298q270 0 428 -171t158 -468q0 -332 -197 -542q-133 -143 -278 -150q-129 -6 -168 113q-2 8 -4 18q-90 -152 -197 -151q-104 0 -156.5 92t-52.5 237q0 125 41 242t133 200t215 83q109 0 149 -48.5t44 -140.5q-117 -412 -23 -518 q57 -66 158 18q119 98 172 297q25 94 25 193q0 547 -551 547q-291 0 -473.5 -236.5t-182.5 -638.5q0 -94 20.5 -188t68.5 -189.5t118 -168t177.5 -117.5t238.5 -45q184 0 371 106q23 -12 24.5 -38.5t-18.5 -43.5q-188 -147 -428 -147q-311 0 -522.5 206.5t-211.5 577.5z M696 268q0 -190 66 -190q143 0 168 610q-20 49 -60 49q-78 0 -126 -151.5t-48 -317.5z" />
<glyph unicode="A" horiz-adv-x="1490" d="M0 135q0 51 15.5 95t41 71t53 40t56.5 7t47 -31q-41 -75 -41 -149q0 -44 14 -89q39 -120 148 -120q190 0 420 479q-147 -14 -187 -14q-43 0 -57 29.5t-9 60.5t17 55q205 0 297 -2q129 299 340 920q88 30 145 30q33 0 56 -11q58 -26 57 -92q0 -36 -23 -391 q-19 -290 -30 -460h63q70 0 79 -18q3 -5 3 -13q0 -19 -16 -51h-133q-12 -231 -19 -467q-52 -30 -113 -30q-6 0 -12 1q-64 3 -63 48q0 17 5 83q5 62 11 161.5t13 195.5q-139 -8 -299 -22q-301 -592 -598 -592q-41 0 -84 12t-90.5 40t-77 86t-29.5 138zM934 565q162 0 248 -2 q23 455 26 658q-161 -420 -274 -656z" />
<glyph unicode="B" horiz-adv-x="1038" d="M2 1374q6 55 21 66q395 57 624 57q262 0 384 -68.5t122 -216.5q0 -143 -115.5 -324t-302.5 -356q133 -10 194.5 -63t61.5 -156q0 -72 -65.5 -186.5t-182 -210.5t-235.5 -96q-27 0 -53.5 12t-59.5 54t-55.5 109.5t-35.5 188.5q-9 83 -9 183q0 46 2 97q6 159 38 396.5 t91 523.5q-160 -20 -403 -67h-5q-18 2 -17 36q0 9 1 21zM482 256v-27q0 -93 6 -146q7 -60 23.5 -97t31 -46.5t30.5 -9.5q94 0 157 98.5t63 241.5q0 84 -58.5 131.5t-163.5 51.5q-28 30 -28 57q0 20 16 39q160 160 262.5 362.5t102.5 323.5q0 86 -56.5 128t-197.5 42h-37 q-53 -281 -87 -509t-48.5 -377.5t-15.5 -262.5z" />
<glyph unicode="C" horiz-adv-x="866" d="M74 391q0 500 207.5 835t484.5 335q176 0 192 -201q2 -29 3 -59q0 -171 -81 -342q-95 -200 -190 -199q-35 0 -55.5 13t-21.5 27.5t3 26.5q106 178 156 387q21 84 21 141q0 110 -80 109q-123 0 -224.5 -174t-150.5 -397t-49 -420q0 -162 35.5 -294t99 -202.5t143.5 -76.5 q5 0 10 -1q76 0 169 91q99 96 194 291q32 12 51 12q22 0 27 -17q2 -3 1 -7q0 -6 -3 -13q-74 -174 -176.5 -288.5t-204.5 -155.5q-72 -29 -144 -29l-61 5q-102 17 -180 91t-127 207t-49 305z" />
<glyph unicode="D" horiz-adv-x="1200" d="M4 1357q-3 11 -3 24t3 28q6 31 23 51q335 46 582 46q209 0 356 -32q322 -71 321 -315q0 -68 -39 -219.5t-114.5 -342.5t-170 -365.5t-221.5 -293t-252 -118.5q-145 0 -145 410q0 393 133 1161q-170 -8 -448 -54q-19 -2 -25 20zM514 40q8 -116 39 -116q92 0 211 225.5 t199.5 522.5t80.5 502q0 201 -364 221q-96 -539 -135 -889q-32 -289 -32 -419q0 -27 1 -47z" />
<glyph unicode="E" horiz-adv-x="776" d="M59 709q-22 69 -22 146q0 130 63 282q102 240 291 352q115 70 240 70q133 0 196.5 -57.5t63.5 -180.5q0 -119 -56.5 -228.5t-117.5 -109.5q-27 0 -51.5 11.5t-26.5 27.5q25 51 44 118.5t32 143.5q4 26 4 49q0 44 -16 78q-24 51 -82 51q-150 0 -265 -202 q-104 -189 -104 -390q0 -211 125 -252q23 -6 49 -6q70 0 162 39q20 8 37.5 8t30.5 -8q24 -14 24 -53v-12q-258 -152 -324 -361q-18 -59 -18 -108q0 -77 45 -131q45 -51 117 -52q88 0 179 85t163 262q23 16 54 10q24 -5 24 -22q0 -6 -2 -13q-70 -209 -208.5 -322.5 t-283.5 -113.5q-104 0 -178 61.5t-95 154.5q-7 28 -7 60q0 72 34 159q49 126 174 243q-232 6 -295 211z" />
<glyph unicode="F" horiz-adv-x="962" d="M3 1356q-3 18 -3 32q0 47 27 70q72 -1 168 -1q193 0 483 3l10 113q88 37 150 36q25 0 45 -5q35 -10 30 -41l-12 -99q76 0 227.5 1t229.5 1q33 0 41 -21q4 -10 3 -20q0 -13 -5 -27q-10 -26 -27 -42q-162 0 -485 -17l-64 -512l-2 -4v-4l150 4h6q54 0 54 -36q0 -32 -44 -70 l-180 -6q-35 -238 -77 -409t-80 -261t-83 -141.5t-75.5 -62.5t-69.5 -11q-92 0 -186.5 185.5t-139.5 389.5q31 25 70 43q30 14 60 15q8 0 17 -1q38 -5 44 -48q29 -182 80 -340t96 -158q86 0 127 487l24 303l-290 -10q-23 0 -33 17.5t-1 45t38 56.5l297 6l43 508 q-473 -33 -609 -39h-2q-41 0 -52 70z" />
<glyph unicode="G" horiz-adv-x="991" d="M55 -410q16 45 46 81t59 36q31 0 84 -54t119.5 -109.5t128.5 -55.5q84 0 144 165t83 451l22 234q-168 -369 -395 -369q-88 0 -178 131t-90 381q0 219 76.5 444.5t228.5 388.5t336 163q106 0 165.5 -59.5t62.5 -144.5q0 -11 1 -22q0 -74 -18 -147q-20 -84 -65.5 -143.5 t-90.5 -59.5q-51 0 -67.5 23.5t-6.5 44.5q35 76 54 141q20 69 19 120q0 42 -10 75q-11 35 -33.5 51t-53.5 16q-152 0 -267.5 -208t-115.5 -599q0 -152 28.5 -260t66.5 -152t77 -44q57 0 141 161.5t152 429.5q60 26 108 27q16 0 30 -3q51 -10 51 -69q0 -8 -1 -18l-43 -399 q-23 -201 -65.5 -356.5t-89 -243t-99.5 -143.5t-92 -73.5t-74 -17.5q-121 0 -244 58t-184 128z" />
<glyph unicode="H" horiz-adv-x="1232" d="M121 306q119 101 356 239q31 295 64 796l-369 -73q-6 -1 -11 -2q-25 0 -43 32q-12 22 -12 47q0 18 7 37l549 78q8 2 16 2q24 0 47 -18q29 -23 29 -66v-6q-31 -418 -78 -708l108 69q33 221 94.5 402.5t160 303.5t212.5 122q76 0 115 -53q35 -47 35 -157v-24 q-6 -160 -124 -302t-321 -286q-10 -96 -14 -219q-2 -46 -2 -88q0 -379 152 -379q119 0 194 187q33 18 55.5 5.5t16.5 -34.5q-37 -123 -130 -201t-194 -78q-162 0 -224 121q-54 104 -54 321q0 36 2 75q2 82 12 167l-115 -71q-143 -745 -430 -746q-66 0 -147 92 q-80 90 -80 192q0 118 123 223zM180 101q0 -48 36 -111q38 -68 73 -68q59 0 100 121t74 379q-283 -190 -283 -321zM971 874q260 227 270 490v23q0 48 -7 66q-9 22 -30 22q-72 0 -135 -170.5t-98 -430.5z" />
<glyph unicode="I" horiz-adv-x="856" d="M-109 41q16 47 53.5 76.5t63.5 29.5q25 0 65 -35.5t78.5 -79.5t97 -80t113.5 -36q57 0 133 227.5t125 565.5q33 230 32 424q0 91 -7 174q-4 47 -21 58q-11 7 -35 7q-13 0 -30 -2q-301 -47 -360 -59q-7 -2 -12 -2q-31 0 -35 49q0 7 -1 13q0 49 27 77q4 4 10 6q53 8 514 8 q78 0 115 -29.5t41 -91.5q5 -63 6 -133q0 -141 -22 -312q-33 -257 -98.5 -494.5t-174 -402.5t-229.5 -165q-119 0 -253.5 57.5t-195.5 149.5z" />
<glyph unicode="J" horiz-adv-x="884" d="M10 49q0 90 11.5 182.5t36 187.5t74.5 155.5t120 60.5q127 0 352 -141q129 487 129 755q0 104 -34.5 156.5t-116.5 52.5q-45 0 -114 -21.5t-156 -55t-130 -46.5q-10 -4 -19 -3q-31 0 -42 46q-5 20 -5 37q0 33 19 53q117 35 284 59.5t253 24.5q125 0 205.5 -72.5 t80.5 -203.5q0 -94 -61 -353t-156 -524q76 -55 203 -159q49 -43 49 -74q0 -25 -35 -41q-115 96 -253 172q-119 -313 -254.5 -510t-272.5 -197q-76 0 -122 133t-46 326zM123 160q0 -158 46 -297t99 -139q55 0 138 182t163 459q-190 84 -305 84q-141 0 -141 -289z" />
<glyph unicode="K" horiz-adv-x="1318" d="M31 508q31 25 69 43q30 14 61 14q8 0 16 -1q38 -5 44 -48q29 -182 80 -340t96 -158q90 0 131 488l68 807q2 25 -9.5 36t-33.5 9l-449 -72q-14 0 -35.5 32t-23.5 60.5t29 36.5l626 62q10 1 20 1q39 0 71 -20q34 -21 33 -61q0 -6 -1 -13l-69 -540q-8 -76 -29 -193 q49 74 175 257.5t216 320.5t174 274q111 -7 111 -65q0 -27 -23 -64q-199 -307 -542 -737q51 -143 88 -233.5t81 -177.5t89 -127t92 -40q55 0 100 36t88 145q23 18 51 8q22 -8 23 -26q0 -5 -2 -11q-29 -109 -128 -194t-192 -85q-266 0 -428 570q-113 -569 -313 -570 q-57 0 -115.5 56.5t-104.5 145.5t-80 185.5t-54 188.5z" />
<glyph unicode="L" horiz-adv-x="931" d="M29 205q4 129 49 241q20 43 84 64q35 11 68 11q26 0 51 -7q51 -127 112 -244q37 131 68 314q-160 63 -282 193t-122 292q0 55 30 99q28 42 71 42h4q92 -406 315 -540q51 328 74 704q8 129 59.5 181.5t169.5 52.5q86 -172 133.5 -352.5t47.5 -341t-85 -264t-251 -103.5h-4 q-63 -256 -142 -412q118 -163 232 -163q21 0 42 5q134 35 246 304q23 18 52 10q22 -6 22 -24q0 -5 -2 -11q-51 -166 -157.5 -272.5t-239.5 -112.5h-12q-128 0 -261 131q-94 -119 -186 -119q-94 0 -142 97q-44 89 -45 205q1 10 1 20zM182 57q2 -104 51 -104q41 0 99 133 q-63 88 -113 197q-37 -115 -37 -215v-11zM637 618q12 -2 41 -2q100 0 147 104q31 68 31 157q0 46 -8 98q-25 152 -113 282q-32 -340 -98 -639z" />
<glyph unicode="M" horiz-adv-x="1626" d="M2 1360q0 51 45 90l512 12h6q49 0 86 -31q31 -27 31 -74q0 -12 -2 -26q-80 -543 -125 -913q14 49 58 192.5t63.5 206t57.5 182t63.5 192.5t59.5 163t65 159q16 33 53 33q17 0 38 -6q69 -20 138 -90l-141 -1102q70 238 172 495t141 314q17 21 39 21q10 0 22 -4 q37 -14 79 -64.5t71 -116.5q-49 -199 -75 -405q-16 -129 -16 -238q0 -65 6 -124q15 -155 83 -154q80 0 149 168q27 10 45.5 10t25.5 -11q4 -6 4 -14q0 -6 -3 -14q-41 -102 -109.5 -170t-152.5 -68q-174 0 -210 234q-11 71 -11 163q0 211 57 531q-55 -113 -111.5 -252 t-139.5 -355t-105 -276q-74 -32 -116 -32q-11 0 -20 3q-35 9 -36 54q0 9 2 18q98 768 127 1182q-164 -397 -408 -1196q-66 -64 -122 -64q-6 0 -13 1q-45 4 -41 59l127 1231q2 15 2 27q0 33 -12 47t-42 13q-10 0 -22 -1l-348 -41q-7 -1 -12 -1q-35 0 -35 42z" />
<glyph unicode="N" horiz-adv-x="1226" d="M2 1346q-1 8 -1 15q0 47 42 89l514 12h8q109 0 109 -102q0 -15 -2 -31l-135 -1042q172 492 395 997q12 29 50 39q11 3 25 3q31 0 71 -16q58 -24 112 -87q-84 -285 -121 -554q-25 -183 -25 -318q0 -63 6 -115q17 -164 83 -164q82 0 151 168q23 10 41 10t28 -11q6 -7 5 -16 q0 -6 -2 -12q-41 -100 -110.5 -169t-153.5 -69q-55 0 -96.5 22.5t-76 91.5t-45.5 182q-4 44 -3 100q0 90 10 213q16 199 67 462q-225 -475 -430 -1032q-51 -10 -74.5 -14t-53.5 -3t-40 17.5t-8 48.5l127 1242q5 65 -60 64q-9 0 -20 -1l-358 -49q-23 -4 -29 29z" />
<glyph unicode="O" horiz-adv-x="964" d="M35 477q0 209 49 395.5t119.5 300t138.5 180t115 72.5q78 145 223 146q119 0 200 -147.5t81 -397.5q0 -119 -15 -262q72 12 150 43q23 -15 22 -36q0 -25 -22 -34q-94 -41 -162 -59q-61 -385 -235.5 -606.5t-342.5 -221.5q-39 0 -75.5 12.5t-83.5 52.5t-81 104.5 t-57.5 183t-23.5 274.5zM240 520q0 -227 59 -387t145 -160q98 0 183.5 185.5t120.5 490.5h-12q-161 0 -251 110q-92 114 -92 355q0 92 17 174q-82 -152 -126 -368t-44 -400zM524 1257q0 -418 236 -487q8 152 8 240q0 260 -96 364q-35 38 -66 38q-22 0 -43 -19 q-39 -38 -39 -136z" />
<glyph unicode="P" horiz-adv-x="1224" d="M0 549q0 45 15.5 85t41 64.5t53 37t56.5 6t47 -30.5q-38 -82 -38 -159q0 -82 59 -141q58 -58 157 -59q47 0 82 10q4 49 46 449.5t59 595.5q-182 -20 -418 -90q-31 -10 -29 35q6 59 33 88q248 55 443 72q98 9 179 9t145 -9q128 -17 212 -63t119.5 -110.5t35.5 -148.5 q0 -207 -197.5 -459t-447.5 -387l-55 -459q-43 -16 -81 -20q-9 -1 -17 -1q-27 0 -46 10q-26 13 -24 48q4 66 33 348q-51 -14 -111 -14q-352 0 -352 293zM668 459q168 119 289.5 313.5t121.5 355.5q0 113 -71.5 187t-223.5 92z" />
<glyph unicode="Q" horiz-adv-x="964" d="M98 686q0 223 72 424t208 331t306 130q143 0 230 -134t87 -343q0 -268 -133 -575.5t-350 -520.5q80 -35 206 -118t235.5 -150.5t238.5 -122.5q116 -50 239 -50q14 0 27 1q137 6 267 86q21 13 34 12q15 0 21 -14q5 -11 4 -22q0 -19 -12 -40q-127 -82 -280 -93 q-29 -2 -59 -2q-124 0 -249 38q-156 47 -297 107.5t-300 129t-261 90.5q-38 -24 -61 -23q-12 0 -19 7q-45 45 -65 87q-12 26 -12 48q0 14 5 27q12 33 70 42q19 3 44 3q50 0 122 -12q172 133 281.5 420.5t109.5 556.5q0 186 -55.5 302.5t-157.5 116.5q-104 0 -179 -107.5 t-104.5 -250.5t-29.5 -297q0 -174 46 -289.5t109 -115.5q43 0 53 112q4 39 4 82q0 82 -13 179q-19 148 -54 259q58 53 106 53q26 0 50 -16q66 -45 65 -172q0 -96 -15.5 -194.5t-45 -191.5t-82.5 -152.5t-123 -59.5q-117 0 -200 121t-83 301z" />
<glyph unicode="R" horiz-adv-x="1173" d="M4 1342q-3 11 -3 24q0 16 5 35q8 33 29 51q313 22 532 22q70 0 130 -3q249 -9 356.5 -57t126.5 -152q3 -20 3 -42q0 -130 -128 -304q-150 -202 -346 -345q82 -227 189.5 -349t197.5 -122q45 0 72.5 30t60.5 112q23 18 51 7q22 -9 22 -27q0 -5 -2 -11q-31 -94 -99 -166 t-165 -72q-63 0 -128.5 29t-133 89.5t-129 173t-102.5 261.5q-37 -340 -54 -510q-43 -16 -87 -21q-12 -1 -22 -1q-30 0 -52 10q-31 14 -27 49q102 786 139 1307q-76 -6 -174 -17.5t-159.5 -18.5t-75.5 -7q-21 -1 -27 25zM549 584q4 6 26 20q160 104 267 297q85 154 85 271 q0 29 -5 57q-12 66 -78 106.5t-154 40.5h-41q-41 -274 -100 -792z" />
<glyph unicode="S" horiz-adv-x="753" d="M84 -37q-23 53 -23 105q0 54 25 106q41 84 119 84q29 0 49 -12.5t12 -36.5q-35 -90 -34 -165q0 -31 6 -60q20 -98 122 -99q55 0 115 56.5t62 162.5q0 63 -22.5 119t-58.5 97.5t-80 83.5t-87 89.5t-79 102.5t-58.5 135t-22.5 176q0 281 150.5 467.5t326.5 186.5t232 -150 q27 -73 27 -145q0 -77 -30 -153q-58 -148 -161 -148q-29 0 -50.5 12t-15.5 37q16 45 31.5 99t31.5 144q6 33 5 62q0 50 -17 87q-27 58 -98 58q-88 0 -153.5 -154.5t-65.5 -351.5q0 -104 38 -191t91 -148.5t107.5 -122t92.5 -142.5t38 -178q0 -160 -122 -258t-255 -98 q-187 0 -248 143z" />
<glyph unicode="T" horiz-adv-x="759" d="M0 485q47 49 103 67q15 5 27 4q33 0 42 -36q57 -571 107 -571q106 0 185 378t116 1025q-330 -35 -428 -35q-61 0 -77 79q-6 32 -6 55q0 35 13 52q172 0 575.5 12.5t575.5 12.5q68 0 80 -20q4 -6 4 -18q0 -27 -19 -85h-34q-155 0 -469 -31q-51 -735 -205 -1132.5 t-348 -397.5q-70 0 -135.5 167t-106.5 474z" />
<glyph unicode="U" horiz-adv-x="1128" d="M147 539q2 201 48.5 449.5t132.5 498.5q31 23 67.5 36t67.5 15q8 1 15 1q22 0 42 -5q27 -6 40 -22.5t11 -38.5q-88 -199 -143 -418t-72 -400q-11 -125 -11 -235q0 -48 2 -93q7 -148 39 -231.5t77 -83.5q49 0 126 170t148.5 461t98.5 586q88 67 154 67q19 0 36 -6 q44 -13 44 -56q0 -17 -7 -40q-66 -238 -97 -437q-31 -193 -31 -314q0 -124 17 -216q16 -86 39 -120.5t41 -34.5q80 0 150 168q35 16 58 7q16 -6 16 -22q0 -6 -3 -14q-41 -100 -109.5 -169t-154.5 -69q-102 0 -151.5 76t-69.5 238q-59 -201 -159.5 -319t-198.5 -118 q-84 0 -146.5 86.5t-90.5 243.5q-26 147 -26 331v28z" />
<glyph unicode="V" horiz-adv-x="833" d="M-199 1341q-4 11 -4 24q0 33 27 79q186 14 444 14q131 0 164 -45q15 -21 15 -60q0 -47 -21 -122q-55 -190 -83 -388t-29 -349v-24q0 -138 12 -250q12 -122 31.5 -187.5t35.5 -65.5q29 0 68 58.5t83 176t81 272.5t63.5 371t30.5 445l-2 2q-43 29 -58 93q-5 21 -4 42 q0 42 20 82q30 59 99 66q76 -115 193 -115q87 0 196 64q29 18 39 -29q-37 -82 -124 -150.5t-183 -84.5q-109 -715 -259.5 -1062.5t-301.5 -347.5q-111 0 -168 207q-47 170 -47 428q0 55 2 114q12 335 96 687q8 31 8 49q0 16 -6 22q-8 9 -36 9q-13 0 -29 -2q-25 -2 -281 -51 q-12 -2 -22 -2q-39 -1 -50 30z" />
<glyph unicode="W" horiz-adv-x="1595" d="M0 1311q-1 8 -1 17q0 52 44 97l520 37q9 2 17 2q32 0 61 -24q37 -31 35 -111l-27 -1071l377 1208q95 34 144 34q52 0 53 -38l34 -1458l291 1344q-21 31 -20 71q0 16 3 34q11 62 60 108q9 9 19 9t20 -9q74 -59 168 -73q45 -6 83 -7q40 0 70 8q58 14 93 35q12 7 21 6 q20 0 28 -29q-47 -96 -168 -168q-103 -61 -202 -61q-17 0 -33 2l-373 -1421q-94 -34 -149 -35q-75 0 -76 65l-62 1202l-348 -1067q-31 -16 -66.5 -26t-71.5 -11t-59 20q-21 20 -20 58q0 117 8.5 351t8.5 350q0 277 -11 553q-2 29 -9 35t-40 0l-385 -72q-31 -6 -37 35z" />
<glyph unicode="X" horiz-adv-x="841" d="M2 -104l369 641q-49 229 -103 694q-2 22 -2 41q0 116 62 176q48 46 102 46q27 0 55 -11q23 -369 50 -652q250 457 344 678q27 63 84 68h9q50 0 72 -43l-487 -893q76 -569 191 -569q80 0 149 168q23 18 51.5 8t20.5 -37q-29 -98 -102.5 -168t-159.5 -70q-186 0 -297 398 l-256 -471q-18 -31 -57 -43q-20 -6 -37 -7q-16 0 -29 6q-29 11 -29 40z" />
<glyph unicode="Y" horiz-adv-x="950" d="M-72 -20q4 47 36 95t77 48q35 0 174 -110.5t195 -110.5q78 0 156.5 201.5t124.5 445.5t63 444q-57 -137 -125 -233t-125.5 -139t-97 -59.5t-66.5 -16.5q-106 0 -106 231q0 207 85 600q3 15 4 28q0 20 -9 35q-13 24 -56 13l-283 -66q-5 -1 -9 0q-34 0 -34 44q0 52 43 81 q2 0 170 21q153 19 211 19q6 0 11 -1q94 -2 133 -39q27 -26 27 -67q0 -17 -5 -37q-76 -328 -99 -509q-10 -73 -10 -118q0 -66 21 -69q63 0 146.5 132t207.5 447q16 43 92 45h4q72 0 122 -59q-51 -408 -151.5 -744.5t-224.5 -527t-241 -190.5q-84 0 -227.5 53.5t-233.5 112.5 z" />
<glyph unicode="Z" horiz-adv-x="948" d="M41 190q0 55 54 121q43 52 84 53q10 0 20 -4q78 -27 241 -161q61 90 127 225q-92 2 -143 10q-61 6 -61.5 62.5t28.5 89.5q152 -23 234 -31q80 203 130 417t54 359q-188 -34 -378 -34q-74 0 -148 6q-53 7 -53 63q0 9 1 20q10 76 60 113q185 -35 402 -35q129 0 270 13 q39 2 56 -18.5t11 -59.5q-20 -145 -101 -385t-192 -467q43 -2 129 -2q33 0 44.5 -14.5t6 -37t-23.5 -49.5q-100 -20 -219 -20q-90 -168 -172 -274q53 -43 93 -70t89 -50q45 -22 83 -22h6q40 2 82 20.5t79 73t67 138.5q12 10 35 10t37 -10q9 -7 9 -17q0 -6 -3 -12 q-43 -102 -92 -172t-95 -106.5t-104 -47.5q-41 -7 -75 -7q-14 0 -26 1q-44 4 -105.5 29.5t-100.5 47t-98 60.5q-102 -86 -186 -86q-74 0 -115 84t-41 176zM121 143q-2 -37 35 -71.5t67 -34.5q45 0 86 26q-127 80 -188 80z" />
<glyph unicode="[" horiz-adv-x="624" d="M72 -375l256 2202l575 -6q29 -72 0 -107t-86 -35l-297 4l-250 -1919l394 -4q29 -70 1 -105.5t-87 -35.5z" />
<glyph unicode="\" horiz-adv-x="776" d="M57 1538q-12 47 23 71.5t96 2.5l412 -1665q10 -45 -39 -71t-105 -3z" />
<glyph unicode="]" horiz-adv-x="638" d="M-121 -260q29 35 86 35l297 -4l250 1919l-393 4q-29 70 -1.5 105.5t87.5 35.5l506 -6l-256 -2202l-576 6q-29 72 0 107z" />
<glyph unicode="^" horiz-adv-x="819" d="M66 893l346 625h98l182 -584q12 -41 -8 -67.5t-80 -16.5l-170 453l-250 -422q-25 -39 -65.5 -32t-52.5 44z" />
<glyph unicode="_" horiz-adv-x="1062" d="M21.5 -185q13.5 42 56.5 42h952q27 -35 12.5 -83t-59.5 -48h-944q-31 47 -17.5 89z" />
<glyph unicode="`" horiz-adv-x="509" d="M80 1112q14 57 43 84t52.5 25t35.5 -17q104 -127 213 -235q-2 -33 -19.5 -46.5t-37.5 -2.5q-172 75 -287 192z" />
<glyph unicode="a" d="M33 303q0 125 41 242t133 199.5t215 82.5q78 0 134 -49q42 -37 42 -97q0 -20 -4 -42q24 -14 24 -57q0 -29 -12 -72q-57 -195 -57 -316.5t67 -121.5q80 0 150 168q23 18 51 8q22 -8 22 -26q0 -5 -1 -11q-29 -98 -102.5 -168t-162.5 -72q-113 0 -147 131 q-76 -129 -184 -129q-104 0 -156.5 92.5t-52.5 237.5zM213 260q0 -190 66 -190q33 0 60.5 36.5t54 137t38.5 254.5q-41 10 -39 55q25 27 39 68q8 24 8 45q0 15 -4 29q-10 34 -49 34q-78 0 -126 -151.5t-48 -317.5z" />
<glyph unicode="b" horiz-adv-x="602" d="M60 182q-20 103 -19 234q0 134 20 298q41 323 146 683q68 50 136 50l15 -1q50 -3 51 -43q0 -10 -3 -23q-78 -272 -125.5 -500.5t-62.5 -373.5q-13 -121 -13 -213q0 -18 1 -35q3 -102 19.5 -145t40.5 -43q82 0 111 185q12 79 12 177q0 133 -22 303q-2 9 -2 17q0 33 25 59 q32 33 83 43q63 -104 136 -123q20 -5 40 -5q54 0 113 36q8 4 16 -2q10 -8 11 -22q0 -35 -80 -70q-66 -29 -119 -29q-15 0 -29 2q0 -13 1 -26q0 -126 -37 -263q-40 -152 -119.5 -265.5t-178.5 -113.5q-127 0 -167 209z" />
<glyph unicode="c" horiz-adv-x="567" d="M53 287q0 233 106.5 406t252.5 173q109 0 132 -128q7 -38 7 -76q0 -90 -39 -179q-55 -127 -139 -127q-25 0 -37 8.5t-10 22.5q0 2 13 45t29.5 101.5t31 118t14.5 100.5t-21 41q-68 0 -118 -153t-50 -314q0 -150 50 -227q48 -74 112 -74q3 0 5 1q67 3 136.5 71.5 t104.5 183.5q27 18 53 8q23 -9 23 -27q0 -75 -81 -179q-58 -75 -131 -114t-152 -41h-9q-74 0 -134 32q-65 34 -107 119t-42 208z" />
<glyph unicode="d" horiz-adv-x="731" d="M41 350q0 184 81 335t197 151q90 0 166 -50q16 203 62 611q101 69 142 69q6 0 11 -2q37 -12 37 -100q0 -541 -143 -965v-28q0 -300 43 -299q80 0 149 168q23 18 52 8q22 -8 22 -26q0 -5 -2 -11q-29 -98 -102.5 -168t-161.5 -70t-117 170q-106 -168 -235 -170 q-88 0 -144.5 109.5t-56.5 267.5zM228 241q9 -161 65 -161q113 0 172 389q2 61 14 238q-49 18 -98 18q-74 0 -118 -162q-36 -134 -36 -267q-1 -27 1 -55z" />
<glyph unicode="e" horiz-adv-x="567" d="M51 301q0 164 36 284t90 176t103.5 80.5t94.5 24.5q86 0 128 -52t42 -136q0 -154 -85 -293t-212 -242q39 -141 147 -141q68 0 132.5 78t105.5 201q27 14 44 11t25 -13q7 -8 7 -18q0 -95 -127 -230q-106 -113 -228 -113q-127 0 -215 100.5t-88 282.5zM229 291q0 -39 2 -55 q164 195 164 462q0 66 -33 66q-12 0 -28.5 -16.5t-34.5 -54.5t-33.5 -90t-26 -134t-10.5 -178z" />
<glyph unicode="f" horiz-adv-x="354" d="M-35 -653q10 369 49 790q-14 27 -28 70q-1 9 -1 17q0 56 46 95q55 528 153 1078q35 41 88 54q17 4 33 4q32 0 56 -18q26 -20 26 -57q0 -15 -4 -32q-129 -592 -205 -1205q40 -62 85 -61q19 0 39 11q67 38 116 188q29 16 56 9q21 -6 21 -23q0 -5 -1 -11 q-39 -133 -102.5 -201.5t-137.5 -72.5q58 -180 58 -317q0 -94 -27 -169q-68 -182 -250 -182q-39 0 -70 33zM94 -604q33 4 60.5 39t42.5 94q8 32 7 73q0 35 -5 77q-12 91 -54 194z" />
<glyph unicode="g" horiz-adv-x="677" d="M-143 -471q0 35 24 61q21 23 57 23h11q37 -63 89 -107.5t109 -44.5q104 0 156.5 138.5t83.5 453.5q-68 -80 -145 -80q-100 0 -154.5 88.5t-54.5 241.5q0 125 41 242t133 199.5t215 82.5q59 0 102 -45q35 10 56.5 -1t32.5 -65q6 -28 6 -70q0 -38 -5 -87q-14 -150 -25 -248 t-31.5 -233t-45.5 -224.5t-63.5 -186.5t-86 -153.5t-115 -93t-149.5 -36.5q-80 0 -160.5 44t-80.5 101zM212 234q7 -165 67 -164q29 0 57.5 42t55 143t40.5 249q-4 60 -4 101q0 76 14 89q-20 31 -39 33q-6 2 -16 2q-80 0 -131 -165q-45 -145 -45 -289q0 -21 1 -41z" />
<glyph unicode="h" horiz-adv-x="718" d="M20 63q0 233 134 1332q68 49 137 52h6q64 0 59 -67l-172 -1120q215 573 361 574q59 0 110 -91q-68 -215 -84 -376q-8 -76 -7 -132q0 -62 9 -97q18 -67 52 -66q80 0 149 168q23 18 51 8q22 -8 23 -26q0 -5 -2 -11q-29 -98 -102.5 -168t-161.5 -70t-133 87q-44 85 -45 220 q0 137 24 312q-59 -82 -129 -249t-121 -345q-66 -22 -101 -22q-16 0 -26 5q-31 14 -31 82z" />
<glyph unicode="i" horiz-adv-x="368" d="M59 288q-1 23 -1 47q0 161 59 408q74 31 118 32t55 -17.5t5 -46.5q-39 -168 -60.5 -284t-25.5 -198q-1 -16 -1 -31q0 -58 13 -87q16 -37 53 -37q82 0 150 166q23 18 51 8q22 -8 22 -26q0 -5 -1 -11q-29 -98 -103 -167t-162 -71q-72 0 -117 72t-55 243zM137 1010 q0 47 34 79.5t77 32.5q125 0 125 -114q0 -37 -24.5 -63.5t-58.5 -33.5q-17 -3 -34 -3t-35 3q-35 6 -59.5 33t-24.5 66z" />
<glyph unicode="j" horiz-adv-x="460" d="M-414 -467q0 33 30 58.5t60 25.5q25 -55 85.5 -104.5t125.5 -49.5q98 0 165 184.5t114 651.5q-47 -160 -105 -166q-31 -2 -36 33v8q94 205 127 528q41 43 91 57q25 7 45.5 6.5t37.5 -6.5q33 -13 34 -38l-12 -229q-31 -512 -160 -810t-342 -298q-100 0 -180 43t-80 106z M152 1018q0 57 35.5 88t86.5 31q55 0 96.5 -31t41.5 -96q0 -63 -42 -92t-96 -29q-45 0 -83.5 36t-38.5 93z" />
<glyph unicode="k" horiz-adv-x="722" d="M25 6l141 1389q57 39 137 43q76 0 70 -58l-150 -989q12 31 38 88.5t74 153.5t102.5 162.5t94.5 66.5q102 0 130 -103q9 -34 8 -73q0 -76 -35 -165q-53 -134 -154 -218q68 -221 160 -221q68 0 131 158q23 18 51 7q22 -9 23 -26q0 -5 -2 -10q-39 -117 -105.5 -177.5 t-144.5 -60.5t-148.5 63.5t-113.5 176.5q-10 27 -11 46q0 22 15 32q113 84 153 202q19 54 19 100q0 56 -27 101q-94 -123 -167.5 -279.5t-116.5 -278.5t-45 -126q-14 -37 -55 -38h-2q-38 0 -70 34z" />
<glyph unicode="l" horiz-adv-x="395" d="M33 372q0 124 23.5 299t62.5 370.5t96 443.5q20 20 47 20q12 0 25 -4q121 -35 153 -207q11 -58 11 -122q0 -127 -42 -281q-65 -231 -206 -426q-1 -33 -1 -64q0 -134 21 -222q27 -108 76 -107q80 0 150 168q35 16 58 7q16 -6 16 -22q0 -6 -3 -14q-41 -100 -109.5 -169 t-154.5 -69q-78 0 -129 45t-72.5 137.5t-21.5 216.5zM215 637q117 237 117 422q0 55 -10 106q-80 -280 -107 -528z" />
<glyph unicode="m" horiz-adv-x="1036" d="M41 63q25 492 74 738q78 42 123 42q29 0 45 -18q14 -16 8 -49q-45 -221 -88 -604q186 592 295 700q34 33 69 33q46 0 97 -55q-47 -147 -74 -331q-25 -170 -25 -299v-19q31 74 80 197.5t79 188t64 120.5q45 70 96 70q53 0 111 -77q-68 -211 -92 -357q-16 -98 -16 -158 q0 -30 4 -51q12 -62 51 -62q80 0 150 168q23 18 51 8q22 -8 22 -26q0 -5 -2 -11q-29 -98 -102.5 -168t-159.5 -70q-100 0 -145 141q-25 77 -25 170q0 77 17 165l-195 -457q-30 -9 -54 -10q-77 0 -98 94q-8 36 -7 93q0 157 59 472q-78 -172 -230 -637q-71 -26 -112 -26 q-20 0 -33 6q-37 17 -37 69v10z" />
<glyph unicode="n" d="M14 45q4 252 70 746l74 32q30 13 55 14q17 0 31 -7q30 -13 29 -43q0 -5 -1 -11q-8 -49 -55 -270t-61 -338q139 369 280 639q16 31 46 42q12 5 26 4q20 0 44 -9q40 -16 77 -62q-55 -258 -68 -427q-5 -70 -5 -120q0 -72 10 -106q17 -57 50 -57q80 0 150 168q23 18 51 8 q22 -8 22 -26q0 -5 -1 -11q-29 -98 -102.5 -168t-162.5 -70q-119 0 -160 166q-21 84 -22 196q0 109 21 245q-119 -252 -248 -588q-48 -15 -80 -15q-21 0 -35 7q-35 16 -35 61z" />
<glyph unicode="o" horiz-adv-x="700" d="M41 311q0 129 29.5 231.5t73.5 159t88 82.5q36 22 66 22q7 0 13 -1q47 45 103 45q90 0 149.5 -72.5t59.5 -212.5q0 -12 -1 -33.5t-1 -31.5q152 47 188 280q25 8 39 -1t14 -27q0 -102 -67.5 -205t-184.5 -135q-33 -203 -139 -321t-199 -118q-33 0 -66.5 12.5t-74.5 44 t-65.5 104.5t-24.5 177zM213 344q4 -119 37 -200t74 -81q109 0 145 340q-90 14 -155.5 68.5t-67.5 128.5q-33 -123 -33 -232v-24zM375 741q-7 -22 -7 -44q0 -38 19 -81q31 -68 90 -102v43q0 145 -59 193q-14 11 -24 10q-13 0 -19 -19z" />
<glyph unicode="p" horiz-adv-x="751" d="M45 147q72 674 72 678q20 14 53 29.5t71 25.5q12 3 22 2q23 0 37 -14q16 -15 16 -46q0 -12 -3 -27l-88 -551q141 395 232 510q47 59 101 59q51 0 108 -51q-55 -180 -82 -313.5t-29 -202.5v-17q0 -58 12 -95q14 -42 30.5 -52t39.5 -10q100 0 170 168q23 18 51 8 q22 -8 22 -26q0 -5 -1 -11q-29 -96 -112 -167t-173 -71q-43 0 -72.5 9.5t-60.5 45t-44 96.5q-10 46 -10 122q0 23 1 50q4 112 30 263q-14 -31 -55 -111.5t-53.5 -108.5t-44 -97.5t-43 -104.5t-34 -103.5t-32.5 -121.5t-24.5 -130t-22.5 -160t-14 -181q-73 -43 -110 -43 q-21 0 -30 14q-5 6 -4 16q0 21 74 719z" />
<glyph unicode="q" d="M33 301q0 221 113.5 372.5t275.5 151.5q78 0 131 -33.5t70 -89.5q-51 -262 -117 -806q10 12 48 54t52.5 59.5t45 56t47 64.5t36 61.5t31.5 68.5q18 16 49 10q24 -5 24 -26q0 -6 -1 -13q-14 -59 -64.5 -133.5t-106 -145.5t-106.5 -147.5t-78 -169.5q-17 -60 -17 -119 q0 -32 5 -65q1 -6 1 -11q0 -37 -48 -45q-14 -2 -28 -3q-40 0 -79 20q8 211 60 629q-61 -70 -135 -70q-111 0 -160 92.5t-49 237.5zM213 242q0 -80 18.5 -127t47.5 -47q31 0 55 23.5t40.5 68.5t28 92t18.5 113.5t11 112.5t8 108.5t6 85.5q-31 51 -69 51q-76 0 -120 -159.5 t-44 -321.5z" />
<glyph unicode="r" horiz-adv-x="591" d="M14 725q0 82 49 155q32 47 79 47q25 0 55 -14q16 -158 20 -229h29q161 0 225 43q47 -3 47 -41q0 -11 -4 -27q-57 -197 -71 -335q-6 -62 -6 -109q0 -56 9 -87q16 -56 52 -56q80 0 149 168q23 18 51 8q22 -8 23 -26q0 -5 -2 -11q-29 -98 -102.5 -168t-161.5 -70 q-41 0 -76 25t-66.5 88.5t-33.5 173.5q0 9 -1 17q0 106 23 264q-61 -4 -88 -4q-14 -197 -100 -369q-20 -37 -48 -32t-40 36q68 143 86 381q-97 33 -97 172z" />
<glyph unicode="s" horiz-adv-x="512" d="M23 170q39 76 72.5 216t35.5 269v4q-8 31 -8 70q0 92 56.5 143.5t152.5 51.5q48 -55 47 -107q0 -55 -53 -108q0 -49 77.5 -222.5t77.5 -279.5q0 -150 -97 -242t-212 -92q-61 0 -94 26.5t-33 53.5q0 74 70 80q14 -29 44.5 -49.5t63.5 -20.5q113 0 113 150 q0 66 -22.5 139.5t-42 110t-62.5 114.5q-33 -199 -96 -309q-20 -35 -48 -33t-42 35z" />
<glyph unicode="t" horiz-adv-x="434" d="M-48 957q-2 11 -2 22q0 26 13 47h162l45 289q79 51 140 51q12 0 24 -2q38 -5 38 -40q0 -10 -3 -24q-41 -205 -54 -272l138 2q63 0 76 -20q5 -7 5 -17q0 -18 -16 -45l-219 -8q-35 -203 -56.5 -359.5t-29.5 -287.5q-3 -48 -3 -87q0 -69 9 -114q14 -70 53 -69q137 0 238 278 q25 16 52 9q24 -6 24 -27q0 -90 -118 -225q-103 -118 -212 -117q-176 0 -202 248q-6 59 -6 133q0 234 63 608l-111 -8q-4 0 -7 -1q-34 0 -41 36z" />
<glyph unicode="u" horiz-adv-x="716" d="M42 395q13 184 77 404q55 14 92 18q21 2 36 2q11 0 19 -1q18 -3 24.5 -15t4.5 -23.5t-8 -31.5q-55 -174 -73 -326q-9 -76 -9 -134.5t9 -99.5q17 -82 58 -82q29 0 57.5 52.5t58.5 187.5t48 338q80 60 142 60q12 0 24 -3q35 -7 35 -37q0 -7 -2 -16q-41 -166 -56 -307 q-9 -82 -9 -144q0 -46 4 -81q11 -84 49 -84q80 0 149 168q23 18 51 8q22 -8 23 -26q0 -5 -2 -11q-29 -100 -98.5 -169t-155.5 -69q-150 0 -168 228q-66 -227 -180.5 -227.5t-163.5 118.5q-39 93 -39 228q0 36 3 75z" />
<glyph unicode="v" horiz-adv-x="657" d="M52 244v20q0 113 10 214q11 110 32 243q8 49 12 72q76 52 139 52q9 0 17 -1q44 -5 44 -44q0 -10 -3 -22q-47 -188 -65 -357q-11 -101 -11 -177q0 -50 4 -88q12 -96 50 -97q90 0 140 161q35 111 34 265q0 69 -6 148q-57 35 -63 98q-1 7 -1 14q0 55 36 99q40 49 99 49 q71 -162 189 -162q52 0 112 31q20 10 29 -21q2 -37 -85 -86q-80 -45 -156 -45h-13q1 -19 1 -38q0 -234 -93 -409q-100 -189 -264 -190q-92 0 -139.5 73t-48.5 198z" />
<glyph unicode="w" horiz-adv-x="1036" d="M41 291q-1 27 -1 54q0 107 13 212q16 131 47 236q71 51 141 51h11q54 -2 54 -40q0 -11 -5 -26q-59 -215 -77 -382q-8 -81 -8 -142q0 -65 9 -107q18 -82 66 -81q39 0 83 79.5t64 202.5q4 131 35 371q29 20 57.5 32.5t58 12.5t47 -22.5t21.5 -72.5q1 -8 1 -17 q0 -47 -19 -122q-31 -123 -36 -233q-1 -23 -1 -44q0 -80 15 -129q19 -62 57 -63q171 0 171 497q0 33 -1 69q-59 25 -71 90q-3 15 -2 29q0 49 29 92q38 55 105 55q43 -113 122 -149q32 -14 67 -14q52 0 112 32q12 6 20.5 -1t8.5 -21q0 -36 -80 -84q-79 -46 -157 -46h-7 q-4 -268 -99 -452.5t-257 -184.5q-129 0 -176 170q-31 -70 -94.5 -120t-112.5 -50q-100 0 -153.5 91.5t-57.5 226.5z" />
<glyph unicode="x" horiz-adv-x="479" d="M0 668q0 141 56 190q28 24 62 24q36 0 79 -26q-17 -171 -18 -307q0 -57 3 -109q111 217 168 312q14 5 27 5q29 0 49 -27q14 -18 14 -39q0 -22 -16 -48q-121 -172 -225 -350q43 -258 163 -258q80 0 166 205q23 18 52 8q22 -8 22 -26q0 -5 -2 -11q-45 -139 -115.5 -203.5 t-140.5 -64.5q-92 0 -160.5 60t-107.5 164.5t-57.5 230t-18.5 270.5z" />
<glyph unicode="y" horiz-adv-x="684" d="M-150 -467q0 39 30 62.5t57 23.5q33 -45 53 -68.5t67 -54.5t93 -31q195 0 282 736q-29 -117 -83 -172.5t-107 -55.5q-115 0 -165 124q-38 93 -38 225q0 43 4 91q16 191 88 406q83 21 128 21h8q46 -2 48 -22.5t-6 -49.5q-63 -172 -84 -330q-11 -85 -11 -150q0 -55 8 -94 q17 -87 61 -88q100 0 155 517q80 60 143 60q14 0 27 -3q40 -7 40 -43q0 -5 -1 -10l-51 -400q-45 -414 -186.5 -628.5t-300.5 -214.5q-53 0 -108.5 13t-103 49t-47.5 87z" />
<glyph unicode="z" horiz-adv-x="657" d="M18 100q-4 28 -3 56q0 99 45 198q58 127 153 127q23 0 33 -10q27 -27 129 -162q80 176 98 367q-80 -19 -155 -19q-90 0 -173 27q-51 16 -58 65q-1 6 -1 11q0 44 47 100q131 -46 284 -46q76 0 158 11q5 1 10 1q30 0 29 -38q0 -96 -52 -253.5t-134 -294.5 q102 -127 156 -127q84 0 129 127q23 18 51 8q22 -8 22 -26q0 -5 -2 -11q-29 -98 -102.5 -168t-161.5 -70q-76 0 -188 127q-106 -127 -207 -127q-91 0 -107 127zM133 245q-1 -14 -1 -28q0 -49 11 -97q14 -62 39 -63q35 0 105 99q-16 18 -36 44.5t-33 43t-26.5 32t-21.5 23.5 t-14 8q-19 0 -23 -62z" />
<glyph unicode="{" horiz-adv-x="690" d="M129 694q-6 86 18 99q123 -4 210 47t87 147q0 29 -39.5 147.5t-39.5 194.5q0 158 140 309.5t316 237.5q43 23 58.5 -4t-2.5 -66q-119 -70 -203 -161t-84 -183q0 -33 21.5 -131t21.5 -176q0 -156 -61.5 -254t-192.5 -158q98 -29 154.5 -85t56.5 -164q0 -100 -38 -196.5 t-76 -170.5t-38 -117q0 -86 73 -188.5t161 -159.5q8 -45 -12.5 -68.5t-59.5 -1.5q-141 78 -249.5 211.5t-108.5 274.5q0 98 75.5 245.5t75.5 190.5q0 162 -264 180z" />
<glyph unicode="|" horiz-adv-x="348" d="M59 -317l246 2109q51 43 102.5 35t45.5 -55l-269 -2118q-63 -43 -97 -32.5t-28 61.5z" />
<glyph unicode="}" horiz-adv-x="684" d="M-15.5 -401.5q-15.5 26.5 3.5 65.5q119 70 202.5 161t83.5 183q0 33 -21.5 131.5t-21.5 175.5q0 156 61.5 254.5t192.5 157.5q-98 29 -154.5 85t-56.5 165q0 100 38 196.5t76 170t38 116.5q0 86 -72.5 188.5t-160.5 159.5q-8 45 12 69t59 1q141 -78 250 -211t109 -274 q0 -98 -76 -246t-76 -191q0 -162 264 -180q6 -86 -18 -98q-123 4 -210 -47t-87 -148q0 -29 40 -147.5t40 -194.5q0 -158 -140.5 -309t-316.5 -238q-43 -22 -58.5 4.5z" />
<glyph unicode="~" horiz-adv-x="1087" d="M53 365q25 94 99.5 173.5t154.5 79.5q59 0 259 -103t243 -103q47 0 80 41t72 129q23 14 53 0.5t16 -54.5q-41 -119 -117.5 -189.5t-173.5 -70.5q-74 0 -270.5 102.5t-222.5 102.5q-14 0 -27.5 -5t-25 -15.5t-18.5 -19.5t-17.5 -27.5t-14.5 -27.5t-13 -29.5t-11 -26.5 q-39 -4 -55.5 6t-10.5 37z" />
<glyph unicode="&#xa1;" horiz-adv-x="647" d="M90 -524l180 962q14 37 57.5 38t69.5 -34l-57 -983q-51 -35 -150 -41q-108 -3 -100 58zM244 754q-4 51 31.5 88t84.5 37q55 0 92 -31t41.5 -84t-30.5 -96t-86 -43q-123 0 -133 129z" />
<glyph unicode="&#xa2;" horiz-adv-x="632" d="M25 895q0 203 90 360.5t241 204.5l39 332q33 29 65 35t49 -9.5t13 -45.5l-39 -297q139 -6 182.5 -103.5t-2 -193t-120.5 -95.5q-53 0 -49 31l8 29q8 31 15 68.5t9 78.5t-10 72t-43 39l-98 -766q125 -6 215 141q45 12 66.5 -6t0.5 -49q-51 -80 -129.5 -128t-165.5 -56 l-36 -283q-63 -43 -87 -33t-18 62l29 260q-100 25 -162.5 113.5t-62.5 238.5zM195 934q0 -170 71 -248l78 672q-70 -59 -109.5 -181t-39.5 -243z" />
<glyph unicode="&#xa3;" horiz-adv-x="866" d="M-72 74q0 86 107.5 164.5t197.5 78.5q25 0 60 -14q4 139 -27 258l-149 -4q-63 0 -70.5 50t21.5 89l163 -2q-18 100 -18 205q0 258 152.5 419t339.5 161q127 0 182 -77t55 -196q0 -121 -66.5 -222t-148.5 -101q-25 0 -44 9t-17 30q0 4 24.5 54t46 121.5t21.5 137.5 q0 68 -21.5 103.5t-81.5 35.5q-88 0 -167.5 -113.5t-79.5 -271.5q0 -72 30 -295h269q35 -2 36.5 -41t-20.5 -80l-270 -8q8 -66 8 -157q0 -86 -47 -175q14 -10 49 -33.5t52 -34.5t43 -26.5t45.5 -21.5t33.5 -6q100 0 156 147q35 14 56 -1t9 -52q-37 -115 -119 -176.5 t-184 -61.5q-76 0 -250 119q-137 -133 -254 -133q-123 0 -123 121zM47 125q0 -74 68 -74q78 0 129 78q-74 49 -109 49q-88 0 -88 -53z" />
<glyph unicode="&#xa5;" horiz-adv-x="790" d="M-23.5 615.5q-7.5 50.5 21.5 89.5l315 -3q-98 362 -200 658q43 74 103 105.5t89 -31.5l174 -664l355 690q78 12 111.5 -12.5t-3.5 -87.5l-356 -658h301q35 -2 37 -40.5t-21 -79.5l-373 -9l-69 -557q-43 -16 -81 -20t-63.5 9t-23.5 48q10 131 49 518l-295 -6 q-63 0 -70.5 50.5z" />
<glyph unicode="&#xa6;" horiz-adv-x="348" d="M59 -317l86 735q51 43 95.5 35.5t38.5 -54.5l-95 -745q-63 -43 -97 -32.5t-28 61.5zM219 1057l86 735q51 43 102.5 35t45.5 -55l-95 -744q-63 -43 -104 -31.5t-35 60.5z" />
<glyph unicode="&#xa7;" horiz-adv-x="858" d="M76.5 -412.5q-56.5 117.5 3 236.5t162.5 119q29 0 50 -12.5t15 -36.5q-2 -4 -15 -36t-21.5 -55.5t-19.5 -61.5t-10 -65.5t9 -54.5t34.5 -41t69.5 -14q88 0 143.5 72.5t55.5 166.5q0 82 -33 146.5t-83 100.5t-108.5 77t-108.5 78t-83 100.5t-33 145.5q0 111 61.5 214 t153.5 164q-98 109 -98 254q0 162 125 275t311 113q176 0 232.5 -118t-3 -237t-161.5 -119q-29 0 -50.5 12.5t-15.5 37.5q2 4 15.5 35.5t22 55t19.5 61.5t10 65.5t-9 54.5t-35 41t-70 14q-88 0 -143 -72.5t-55 -166.5q0 -82 32.5 -146.5t83 -100.5t108.5 -77t108.5 -78 t83 -100.5t32.5 -145.5q0 -113 -62.5 -215t-152.5 -165q98 -104 98 -252q0 -162 -124.5 -274.5t-311.5 -112.5q-176 0 -232.5 117.5zM276 524q0 -63 33 -117.5t70 -85t106.5 -79.5t102.5 -78q100 106 102 254q0 61 -32.5 116.5t-68.5 85t-107.5 80t-104.5 76.5 q-101 -109 -101 -252z" />
<glyph unicode="&#xa8;" horiz-adv-x="745" d="M102 1049q0 57 31 81.5t74 24.5q39 0 67.5 -25.5t28.5 -64.5q0 -47 -27.5 -77t-74.5 -30q-45 0 -72 25t-27 66zM428 1040q0 59 33 90t76 31t74.5 -26.5t31.5 -71.5q0 -43 -35 -75t-82 -32q-98 0 -98 84z" />
<glyph unicode="&#xa9;" horiz-adv-x="1554" d="M88 643q0 170 54.5 330t154.5 291t263 210.5t360 79.5q180 0 319 -55t222 -153.5t125 -222.5t42 -269q0 -174 -61.5 -345t-169 -309.5t-271 -224.5t-354.5 -86q-170 0 -304 61.5t-215 168t-123 239.5t-42 285zM272 633q0 -276 130 -460.5t382 -184.5q147 0 275.5 77.5 t213.5 203.5t133 281t48 310q0 260 -135 428t-401 168q-203 0 -353.5 -126t-221.5 -309t-71 -388zM547 616q0 231 115.5 405.5t263.5 174.5q66 0 103.5 -52t40.5 -128t-13.5 -150.5t-57.5 -127t-92 -52.5q-47 0 -47 31q0 14 12.5 62t26.5 104.5t25.5 112t8.5 91t-26 35.5 q-68 0 -128 -155.5t-60 -311.5q0 -139 43 -219t104 -80q35 0 83 57.5t73 135.5q27 18 54.5 8t21.5 -33q-33 -119 -117 -193.5t-162 -74.5q-115 0 -193.5 92t-78.5 268z" />
<glyph unicode="&#xaa;" horiz-adv-x="538" d="M100 1065q0 152 90.5 282t223.5 130q55 0 94 -35t27 -101q29 -16 8 -92q-25 -86 -33 -153.5t0 -103.5t31 -36q49 0 65 101q12 8 29.5 8t31 -8t11.5 -21q-10 -78 -53 -125t-113 -47q-86 0 -109 94q-53 -92 -151 -92q-152 0 -152 199zM242 1055q0 -100 57 -101 q18 0 35.5 23.5t36 91.5t26.5 172q-29 8 -26 39q18 18 28.5 43t4 44t-32.5 19q-57 0 -93 -107t-36 -224z" />
<glyph unicode="&#xab;" horiz-adv-x="1032" d="M98 534.5q6 26.5 29 38.5l412 312q43 -4 56 -40t-9 -57l-269 -264l220 -286q-8 -37 -35 -54.5t-49 -3.5l-342 293q-19 35 -13 61.5zM473 479q-20 61 25 86l417 301q37 -8 50.5 -45t-9.5 -55l-292 -256l243 -270q-8 -37 -42 -56.5t-54 -3.5z" />
<glyph unicode="&#xac;" horiz-adv-x="1114" d="M143 481q-25 156 84 156l695 -2q63 0 53 -68l-53 -424q-4 -33 -55.5 -33.5t-80.5 35.5l35 332z" />
<glyph unicode="&#xad;" horiz-adv-x="501" d="M31 422q2 31 12 53l377 -2q37 -2 47 -41t-10 -80l-346 -16q-43 0 -62.5 27.5t-17.5 58.5z" />
<glyph unicode="&#xae;" horiz-adv-x="587" d="M123 1223q0 131 86 231t235 100q135 0 204 -72.5t69 -181.5q0 -135 -92.5 -243.5t-237.5 -108.5q-129 0 -196.5 79t-67.5 196zM217 1223q0 -92 44 -152.5t132 -60.5q102 0 168 89t66 199q0 84 -47.5 138.5t-139.5 54.5q-102 0 -162.5 -82t-60.5 -186zM291 1376.5 q0 20.5 10 26.5q100 14 154.5 8t73 -19.5t18.5 -39.5q0 -72 -92 -119q27 -96 47 -96q10 0 16 20q14 2 23.5 0t11.5 -6t0 -10q-16 -49 -64 -49q-70 0 -102 110l-12 -108q-29 -8 -52.5 -6t-23.5 12q23 162 33 260q-6 0 -16.5 -2t-14.5 -2q-10 0 -10 20.5zM389 1239 q70 33 70 104q0 31 -51 25q-15 -86 -19 -129z" />
<glyph unicode="&#xaf;" horiz-adv-x="755" d="M115.5 1018q-11.5 31 17.5 90q80 0 229.5 4t229.5 4q37 -2 47 -31.5t-10 -70.5q-68 -2 -213.5 -11.5t-237.5 -13.5q-51 -2 -62.5 29z" />
<glyph unicode="&#xb0;" horiz-adv-x="589" d="M152 1120q0 137 90 248t237 111q119 0 178.5 -63.5t59.5 -162.5q0 -137 -98.5 -255.5t-239.5 -118.5q-113 0 -170 68.5t-57 172.5zM313 1223q0 -90 42 -156t104 -66q47 0 77.5 52.5t30.5 134.5q0 80 -27.5 130t-82.5 50q-57 0 -100.5 -39.5t-43.5 -105.5z" />
<glyph unicode="&#xb1;" horiz-adv-x="1114" d="M82 92q8 41 55 41l805 -8q29 -70 0 -106.5t-86 -34.5l-758 10q-24 57 -16 98zM143 563q-25 156 84 156l265 -2l34 323q4 33 57.5 46.5t106.5 -21.5l-47 -348h340q25 -41 9.5 -102.5t-64.5 -61.5l-307 4l-46 -332q-4 -33 -55 -34t-80 36l35 332z" />
<glyph unicode="&#xb2;" horiz-adv-x="671" d="M160.5 772.5q-23.5 61.5 23.5 136.5q25 10 62 6q33 41 89 113t76.5 98.5t48 68.5t36 69.5t8.5 56.5q0 57 -76 57q-35 0 -46 -36.5t-7 -153.5q-43 -20 -103.5 -17t-62.5 31q-12 127 64.5 202t209.5 75q96 0 150.5 -49.5t54.5 -118.5q0 -14 -3 -29.5t-6 -28t-13.5 -30 t-18.5 -29.5t-26.5 -34.5t-30.5 -37t-40 -44t-46.5 -49t-56 -59.5t-64.5 -67q20 -4 73.5 -17.5t95.5 -19.5t81 -2q14 2 20 -14t4 -42t-7 -47.5t-9 -35.5q-2 -2 -12 -8q-76 -12 -185.5 27.5t-132.5 41.5q-2 -2 -45 -57q-82 -18 -105.5 43.5z" />
<glyph unicode="&#xb3;" horiz-adv-x="624" d="M125 858q0 61 60.5 94t117.5 -14q-57 -135 37 -135q57 0 98 42t41 103q0 53 -36.5 65.5t-123.5 -3.5q-18 12 -21 47t13 51q90 76 126 126t36 105q0 18 -16.5 34t-36.5 16q-31 0 -41 -33t-12 -117q-47 -16 -83 -19t-53.5 6t-17.5 27q0 225 262 226q84 0 129 -38t45 -95 q0 -106 -182 -230q92 12 140 -23.5t48 -109.5q0 -90 -102 -177t-221 -87q-90 0 -148.5 32.5t-58.5 106.5z" />
<glyph unicode="&#xb4;" horiz-adv-x="612" d="M104 961q197 207 277 299q37 39 83 11t44 -87l-330 -258q-29 -20 -53.5 -7t-20.5 42z" />
<glyph unicode="&#xb5;" horiz-adv-x="716" d="M-49 -553q18 264 69.5 700.5t100.5 671.5q72 27 106.5 21t40.5 -22.5t0 -49.5q-133 -662 4 -662q100 0 156 517q96 72 166 57q43 -8 33 -53q-55 -231 -57.5 -391t53.5 -164q80 0 149 168q23 18 51.5 8t20.5 -37q-29 -100 -98.5 -169t-155.5 -69q-150 0 -168 228 q-37 -129 -109.5 -193.5t-165.5 2.5q-8 -51 -61 -598q-139 -49 -135 35z" />
<glyph unicode="&#xb6;" horiz-adv-x="1298" d="M25 1042q0 203 148.5 362t383.5 241l18 147q51 43 102.5 35t45.5 -55l-10 -84q113 27 219 28l10 86q51 43 102.5 35t45.5 -55l-11 -74q285 -37 285 -285q0 -45 -15.5 -85t-41 -64.5t-53 -36.5t-56.5 -6t-47 31q16 31 25.5 74.5t7.5 94t-33 96.5t-86 68l-100 -788 q113 27 198 53q31 10 29 -31q-6 -55 -33 -81q-90 -33 -211 -66l-119 -942q-63 -43 -97 -33t-27 62l102 882q-104 -20 -229 -24l-123 -973q-63 -43 -97 -33t-28 62l110 952q-203 25 -309 135t-106 272zM244 1094q0 -240 215 -306l86 748q-139 -70 -220 -183.5t-81 -258.5z M594 766q104 -4 229 14l97 840q-123 -4 -220 -29z" />
<glyph unicode="&#xb7;" horiz-adv-x="479" d="M178 745q0 55 33 97.5t84 42.5q59 0 96 -37t37 -103q0 -47 -35 -80.5t-82 -33.5q-57 0 -95 30.5t-38 83.5z" />
<glyph unicode="&#xb8;" horiz-adv-x="557" d="M86 -440q-8 41 51 65q4 0 8 2q49 -70 99 -69q33 0 51 20.5t18 50.5q0 37 -28.5 64.5t-57 41t-43 42t16.5 65.5q29 43 69.5 62.5t65.5 -2.5q-27 -29 -12.5 -52.5t42 -35t54 -41t26.5 -70.5q0 -86 -68.5 -141.5t-160.5 -55.5q-119 1 -131 54z" />
<glyph unicode="&#xb9;" horiz-adv-x="530" d="M123 1253.5q-12 28.5 4 38.5l231 166q53 10 92 10t57.5 -8t16.5 -22l-110 -697q-43 -10 -78 -12t-55.5 6t-18.5 27q8 111 64 547l-170 -90q-21 6 -33 34.5z" />
<glyph unicode="&#xba;" horiz-adv-x="401" d="M111 1102q0 143 80.5 258t183.5 115q70 0 109.5 -57.5t39.5 -160.5q0 -180 -83 -285.5t-175 -105.5q-23 0 -45 8.5t-50 31t-44 73.5t-16 123zM225 1135q0 -164 82 -164q45 0 78 69.5t33 167.5q0 160 -86 160q-43 0 -75 -67.5t-32 -165.5z" />
<glyph unicode="&#xbb;" horiz-adv-x="1032" d="M66.5 235.5q-13.5 36.5 9.5 55.5l293 256l-244 270q8 37 42 56.5t54 3.5l338 -299q20 -61 -24 -86l-418 -302q-37 9 -50.5 45.5zM437.5 212q-13.5 36 8.5 56l269 264l-219 287q8 37 34.5 54.5t49.5 3.5l342 -293q18 -35 12 -61.5t-29 -39.5l-411 -311q-43 4 -56.5 40z " />
<glyph unicode="&#xbc;" horiz-adv-x="1345" d="M161.5 25.5q-26.5 31.5 4.5 72.5l985 1356q63 10 90 -14.5t-4 -65.5l-977 -1372q-72 -8 -98.5 23.5zM192.5 1253.5q-12.5 28.5 4.5 38.5l231 166q53 10 92 10t57.5 -8t16.5 -22l-111 -697q-43 -10 -77.5 -12t-55 6t-18.5 27q8 111 63 547l-170 -90q-20 6 -32.5 34.5z M675 187.5q-5 48.5 9 58.5l358 471q162 10 154 -53l-66 -416h87q39 0 47 -36t-19 -95h-129l-24 -129q-43 -10 -80 -12.5t-58.5 6t-19.5 26.5q0 12 1 21.5t2 17.5t4 26.5t5 43.5h-235q-31 22 -36 70.5zM813 246q43 0 76 1t69 1q4 51 27 223z" />
<glyph unicode="&#xbd;" horiz-adv-x="1349" d="M161.5 25.5q-26.5 31.5 4.5 72.5l985 1356q63 10 90 -14.5t-4 -65.5l-977 -1372q-72 -8 -98.5 23.5zM192.5 1253.5q-12.5 28.5 4.5 38.5l231 166q53 10 92 10t57.5 -8t16.5 -22l-111 -697q-43 -10 -77.5 -12t-55 6t-18.5 27q8 111 63 547l-170 -90q-20 6 -32.5 34.5z M746.5 18.5q-23.5 61.5 23.5 137.5q25 10 61 6q33 41 89.5 112.5t77 98t48 68.5t36 70t8.5 56q0 57 -76 58q-35 0 -46.5 -37t-6.5 -154q-43 -20 -103.5 -17t-62.5 32q-12 127 64.5 201.5t209.5 74.5q96 0 150.5 -49t54.5 -119q0 -14 -3 -29.5t-6 -28t-13.5 -29.5 t-18.5 -29.5t-26.5 -35t-31 -37t-40 -44t-46 -49t-56.5 -59.5t-64 -66q20 -4 73.5 -17.5t95.5 -20t81 -1.5q14 2 20 -14.5t4 -42t-7 -47t-9 -36.5q-2 -2 -13 -8q-76 -12 -185 28t-132 42q-2 -2 -45 -58q-82 -18 -105.5 43.5z" />
<glyph unicode="&#xbe;" horiz-adv-x="1390" d="M119 858q0 61 59.5 94t118.5 -14q-59 -135 37 -135q57 0 98 42t41 103q0 53 -37 65.5t-123 -3.5q-18 12 -21 47t13 51q90 76 126 126t36 105q0 18 -16.5 34t-36.5 16q-31 0 -41.5 -33t-12.5 -117q-47 -16 -82.5 -19t-53 6t-17.5 27q0 225 262 226q84 0 129 -38t45 -95 q0 -106 -182 -230q92 12 140 -23.5t48 -109.5q0 -90 -102.5 -177t-220.5 -87q-90 0 -148.5 32.5t-58.5 106.5zM243.5 25.5q-26.5 31.5 4.5 72.5l985 1356q63 10 90 -14.5t-4 -65.5l-977 -1372q-72 -8 -98.5 23.5zM757 187.5q-5 48.5 9 58.5l358 471q162 10 154 -53l-66 -416 h86q39 0 47.5 -36t-18.5 -95h-129l-24 -129q-43 -10 -80 -12.5t-58.5 6t-19.5 26.5q0 12 1 21.5t2 17.5t4 26.5t5 43.5h-235q-31 22 -36 70.5zM895 246q43 0 76 1t69 1q4 51 27 223z" />
<glyph unicode="&#xbf;" horiz-adv-x="731" d="M-68 -287q0 104 38 188.5t92.5 141.5t108.5 110.5t90 125t32 155.5q-2 20 18.5 32.5t52 7.5t56.5 -32q2 -90 -26.5 -163.5t-70.5 -128t-85 -112.5t-73 -146.5t-30 -198.5q0 -94 31 -151.5t90 -57.5q74 0 127 92t55 283q72 39 123 33.5t51 -58.5q0 -217 -117.5 -334.5 t-261.5 -117.5q-147 0 -224 85.5t-77 245.5zM246 754q-4 51 31.5 88t84.5 37q55 0 92.5 -31t41.5 -84t-31 -96t-86 -43q-123 0 -133 129z" />
<glyph unicode="&#xc0;" horiz-adv-x="1490" d="M0 135q0 51 15.5 95t41 71t53 40t56.5 7t47 -31q-66 -119 -27 -238.5t148 -119.5q190 0 420 479q-147 -14 -187 -14q-43 0 -57 29.5t-9 60.5t17 55q205 0 297 -2q129 299 340 920q139 47 200.5 19.5t57.5 -101.5q-4 -92 -23.5 -382t-29.5 -460h63q70 0 79 -18.5 t-13 -63.5h-133q-12 -231 -19 -467q-57 -33 -124.5 -29.5t-63.5 54.5q0 14 5 76.5t11 162t13 195.5q-139 -8 -299 -22q-301 -592 -598 -592q-41 0 -84 12t-90.5 40t-77 86t-29.5 138zM934 565q162 0 248 -2q23 455 26 658q-161 -420 -274 -656zM963 1757q0 59 20.5 93t44 34 t39.5 -6q127 -92 332 -211q6 -31 -7.5 -48t-37.5 -13q-68 12 -193.5 59t-197.5 92z" />
<glyph unicode="&#xc1;" horiz-adv-x="1490" d="M0 135q0 51 15.5 95t41 71t53 40t56.5 7t47 -31q-66 -119 -27 -238.5t148 -119.5q190 0 420 479q-147 -14 -187 -14q-43 0 -57 29.5t-9 60.5t17 55q205 0 297 -2q129 299 340 920q139 47 200.5 19.5t57.5 -101.5q-4 -92 -23.5 -382t-29.5 -460h63q70 0 79 -18.5 t-13 -63.5h-133q-12 -231 -19 -467q-57 -33 -124.5 -29.5t-63.5 54.5q0 14 5 76.5t11 162t13 195.5q-139 -8 -299 -22q-301 -592 -598 -592q-41 0 -84 12t-90.5 40t-77 86t-29.5 138zM934 565q162 0 248 -2q23 455 26 658q-161 -420 -274 -656zM1083 1663l402 235 q45 27 84 -19t22 -101q-106 -43 -465 -174q-23 -6 -38 14t-5 45z" />
<glyph unicode="&#xc2;" horiz-adv-x="1490" d="M0 135q0 51 15.5 95t41 71t53 40t56.5 7t47 -31q-66 -119 -27 -238.5t148 -119.5q190 0 420 479q-147 -14 -187 -14q-43 0 -57 29.5t-9 60.5t17 55q205 0 297 -2q129 299 340 920q139 47 200.5 19.5t57.5 -101.5q-4 -92 -23.5 -382t-29.5 -460h63q70 0 79 -18.5 t-13 -63.5h-133q-12 -231 -19 -467q-57 -33 -124.5 -29.5t-63.5 54.5q0 14 5 76.5t11 162t13 195.5q-139 -8 -299 -22q-301 -592 -598 -592q-41 0 -84 12t-90.5 40t-77 86t-29.5 138zM934 565q162 0 248 -2q23 455 26 658q-161 -420 -274 -656zM1005.5 1618q-4.5 12 2.5 22 q39 57 153.5 138.5t169.5 81.5q70 0 145.5 -65.5t106.5 -139.5q-41 -39 -78 -50.5t-56 -3t-32 26.5q-23 35 -62.5 63.5t-60.5 28.5q-123 0 -225 -127q-23 -4 -41 4.5t-22.5 20.5z" />
<glyph unicode="&#xc3;" horiz-adv-x="1490" d="M0 135q0 51 15.5 95t41 71t53 40t56.5 7t47 -31q-66 -119 -27 -238.5t148 -119.5q190 0 420 479q-147 -14 -187 -14q-43 0 -57 29.5t-9 60.5t17 55q205 0 297 -2q129 299 340 920q139 47 200.5 19.5t57.5 -101.5q-4 -92 -23.5 -382t-29.5 -460h63q70 0 79 -18.5 t-13 -63.5h-133q-12 -231 -19 -467q-57 -33 -124.5 -29.5t-63.5 54.5q0 14 5 76.5t11 162t13 195.5q-139 -8 -299 -22q-301 -592 -598 -592q-41 0 -84 12t-90.5 40t-77 86t-29.5 138zM934 565q162 0 248 -2q23 455 26 658q-161 -420 -274 -656zM977 1720q27 59 80 92t98 33 q59 0 170 -61.5t154 -61.5q35 0 73 58q31 0 42.5 -16.5t0.5 -41.5q-27 -59 -80 -92t-98 -33q-74 0 -185.5 61.5t-137.5 61.5q-35 0 -74 -57q-31 0 -42 16t-1 41z" />
<glyph unicode="&#xc4;" horiz-adv-x="1490" d="M0 135q0 51 15.5 95t41 71t53 40t56.5 7t47 -31q-66 -119 -27 -238.5t148 -119.5q190 0 420 479q-147 -14 -187 -14q-43 0 -57 29.5t-9 60.5t17 55q205 0 297 -2q129 299 340 920q139 47 200.5 19.5t57.5 -101.5q-4 -92 -23.5 -382t-29.5 -460h63q70 0 79 -18.5 t-13 -63.5h-133q-12 -231 -19 -467q-57 -33 -124.5 -29.5t-63.5 54.5q0 14 5 76.5t11 162t13 195.5q-139 -8 -299 -22q-301 -592 -598 -592q-41 0 -84 12t-90.5 40t-77 86t-29.5 138zM934 565q162 0 248 -2q23 455 26 658q-161 -420 -274 -656zM967 1716q0 57 30.5 82 t73.5 25q39 0 67.5 -25.5t28.5 -64.5q0 -47 -27.5 -77t-74.5 -30q-45 0 -71.5 24.5t-26.5 65.5zM1395 1708q0 59 32.5 90t75.5 31t75 -26.5t32 -71.5q0 -43 -35 -75t-82 -32q-98 0 -98 84z" />
<glyph unicode="&#xc5;" horiz-adv-x="1490" d="M0 135q0 51 15.5 95t41 71t53 40t56.5 7t47 -31q-66 -119 -27 -238.5t148 -119.5q190 0 420 479q-147 -14 -187 -14q-43 0 -57 29.5t-9 60.5t17 55q205 0 297 -2q129 299 340 920q139 47 200.5 19.5t57.5 -101.5q-4 -92 -23.5 -382t-29.5 -460h63q70 0 79 -18.5 t-13 -63.5h-133q-12 -231 -19 -467q-57 -33 -124.5 -29.5t-63.5 54.5q0 14 5 76.5t11 162t13 195.5q-139 -8 -299 -22q-301 -592 -598 -592q-41 0 -84 12t-90.5 40t-77 86t-29.5 138zM934 565q162 0 248 -2q23 455 26 658q-161 -420 -274 -656zM1130 1714q0 88 54.5 146.5 t154.5 58.5q147 0 148 -137q0 -88 -59.5 -151.5t-155.5 -63.5q-142 0 -142 147zM1243 1784q0 -59 27.5 -93t62.5 -34q37 0 37 69q0 117 -65 117q-25 0 -43.5 -17t-18.5 -42z" />
<glyph unicode="&#xc6;" horiz-adv-x="1896" d="M2 135q0 84 42 145.5t88 66.5t81 -30q-68 -119 -34 -238.5t143 -119.5q213 0 483 600q-133 -6 -268 -6q-61 0 -66.5 27.5t18.5 56.5q121 0 361 22q70 162 311 799q66 53 150 51q70 0 63 -53q121 0 545 14q14 0 25.5 -3t17.5 -9t10 -11t4 -15.5t1 -16.5t-2 -19.5t-5 -19.5 t-6 -20.5t-6 -18.5q-223 0 -494 4l-78 -622q190 20 320 20q94 0 41 -133q-131 4 -377 -10l-59 -479l450 22q14 0 25.5 -3t17.5 -9t10.5 -11t4.5 -15.5t1 -16.5t-2 -19.5t-5.5 -19.5t-6.5 -20.5t-6 -18.5q-141 0 -320.5 -5t-246.5 -5q-33 0 -47.5 1t-30.5 6t-21.5 17.5 t-3.5 32.5q6 90 52 529q-66 -4 -244 -17q-166 -338 -325.5 -522t-338.5 -184q-41 0 -84 12t-88 40t-72.5 86t-27.5 138zM991 676q82 8 201 22l57 580q-188 -452 -258 -602z" />
<glyph unicode="&#xc7;" horiz-adv-x="866" d="M74 391q0 500 207.5 835t484.5 335q176 0 192.5 -201t-79 -400.5t-189.5 -199.5q-35 0 -55.5 13t-21.5 27.5t3 26.5q106 178 156 387q61 250 -59 250q-123 0 -224.5 -174t-150.5 -397t-49 -420q0 -162 35.5 -294t99 -202.5t143.5 -76.5t179.5 90t193.5 291q70 27 78 -5 q4 -8 -2 -20q-94 -217 -223 -337t-267 -134l2 -2q-27 -29 -12.5 -52.5t42.5 -34.5t54.5 -41t26.5 -71q0 -86 -68.5 -141t-160.5 -55q-119 0 -131 53q-8 41 51 65q4 0 8 2q49 -70 98 -69q33 0 51.5 20.5t18.5 51.5q0 37 -28.5 64.5t-57.5 40.5t-43.5 42t16.5 66q27 39 64 59 q-164 16 -273.5 178t-109.5 430z" />
<glyph unicode="&#xc8;" horiz-adv-x="776" d="M59 709q-59 186 41 428q102 240 291 352q115 70 240 70q133 0 196.5 -57.5t63.5 -180.5q0 -119 -56.5 -228.5t-117.5 -109.5q-27 0 -51.5 11.5t-26.5 27.5q25 51 44 118.5t31.5 143.5t-11 127t-82.5 51q-150 0 -265 -202q-106 -193 -104 -398q4 -205 125 -244 q23 -6 49 -6q70 0 162 39q41 16 68.5 0t23.5 -65q-258 -152 -324 -361q-47 -152 27 -239q45 -51 117 -52q88 0 179 85t163 262q23 16 54.5 10t21.5 -35q-70 -209 -208.5 -322.5t-283.5 -113.5q-104 0 -178 61.5t-95.5 154.5t27.5 219t174 243q-232 6 -295 211zM387 1757 q0 59 20.5 93t44 34t40.5 -6q127 -92 331 -211q6 -31 -7 -48t-38 -13q-68 12 -193.5 59t-197.5 92z" />
<glyph unicode="&#xc9;" horiz-adv-x="776" d="M59 709q-59 186 41 428q102 240 291 352q115 70 240 70q133 0 196.5 -57.5t63.5 -180.5q0 -119 -56.5 -228.5t-117.5 -109.5q-27 0 -51.5 11.5t-26.5 27.5q25 51 44 118.5t31.5 143.5t-11 127t-82.5 51q-150 0 -265 -202q-106 -193 -104 -398q4 -205 125 -244 q23 -6 49 -6q70 0 162 39q41 16 68.5 0t23.5 -65q-258 -152 -324 -361q-47 -152 27 -239q45 -51 117 -52q88 0 179 85t163 262q23 16 54.5 10t21.5 -35q-70 -209 -208.5 -322.5t-283.5 -113.5q-104 0 -178 61.5t-95.5 154.5t27.5 219t174 243q-232 6 -295 211zM438 1663 l402 235q45 27 84 -19t22 -101q-106 -43 -465 -174q-23 -6 -38 14t-5 45z" />
<glyph unicode="&#xca;" horiz-adv-x="776" d="M59 709q-59 186 41 428q102 240 291 352q115 70 240 70q133 0 196.5 -57.5t63.5 -180.5q0 -119 -56.5 -228.5t-117.5 -109.5q-27 0 -51.5 11.5t-26.5 27.5q25 51 44 118.5t31.5 143.5t-11 127t-82.5 51q-150 0 -265 -202q-106 -193 -104 -398q4 -205 125 -244 q23 -6 49 -6q70 0 162 39q41 16 68.5 0t23.5 -65q-258 -152 -324 -361q-47 -152 27 -239q45 -51 117 -52q88 0 179 85t163 262q23 16 54.5 10t21.5 -35q-70 -209 -208.5 -322.5t-283.5 -113.5q-104 0 -178 61.5t-95.5 154.5t27.5 219t174 243q-232 6 -295 211zM350 1618 q-4 12 2 22q39 57 154 138.5t170 81.5q70 0 145.5 -65.5t106.5 -139.5q-41 -39 -78 -50.5t-56.5 -3t-31.5 26.5q-23 35 -63 63.5t-60 28.5q-123 0 -225 -127q-23 -4 -41.5 4.5t-22.5 20.5z" />
<glyph unicode="&#xcb;" horiz-adv-x="776" d="M59 709q-59 186 41 428q102 240 291 352q115 70 240 70q133 0 196.5 -57.5t63.5 -180.5q0 -119 -56.5 -228.5t-117.5 -109.5q-27 0 -51.5 11.5t-26.5 27.5q25 51 44 118.5t31.5 143.5t-11 127t-82.5 51q-150 0 -265 -202q-106 -193 -104 -398q4 -205 125 -244 q23 -6 49 -6q70 0 162 39q41 16 68.5 0t23.5 -65q-258 -152 -324 -361q-47 -152 27 -239q45 -51 117 -52q88 0 179 85t163 262q23 16 54.5 10t21.5 -35q-70 -209 -208.5 -322.5t-283.5 -113.5q-104 0 -178 61.5t-95.5 154.5t27.5 219t174 243q-232 6 -295 211zM297 1716 q0 57 30.5 82t73.5 25q39 0 68 -25.5t29 -64.5q0 -47 -28 -77t-75 -30q-45 0 -71.5 24.5t-26.5 65.5zM725 1708q0 59 33 90t76 31t74.5 -26.5t31.5 -71.5q0 -43 -35 -75t-82 -32q-98 0 -98 84z" />
<glyph unicode="&#xcc;" horiz-adv-x="856" d="M-109 41q16 47 53.5 76.5t63.5 29.5q25 0 65 -35.5t78.5 -79.5t97 -80t113.5 -36q57 0 133 227.5t124.5 565.5t25.5 598q-4 47 -21.5 58t-64.5 5q-301 -47 -360 -59q-43 -10 -47 47q-4 59 26 90q4 4 10 6q53 8 514 8q78 0 115 -29.5t41 -91.5q16 -188 -16.5 -445 t-98 -494.5t-174 -402.5t-229.5 -165q-119 0 -253.5 57.5t-195.5 149.5zM293 1716q0 59 20.5 93t44 34t39.5 -6q127 -92 332 -211q6 -31 -7 -48t-38 -13q-68 12 -193.5 59t-197.5 92z" />
<glyph unicode="&#xcd;" horiz-adv-x="856" d="M-109 41q16 47 53.5 76.5t63.5 29.5q25 0 65 -35.5t78.5 -79.5t97 -80t113.5 -36q57 0 133 227.5t124.5 565.5t25.5 598q-4 47 -21.5 58t-64.5 5q-301 -47 -360 -59q-43 -10 -47 47q-4 59 26 90q4 4 10 6q53 8 514 8q78 0 115 -29.5t41 -91.5q16 -188 -16.5 -445 t-98 -494.5t-174 -402.5t-229.5 -165q-119 0 -253.5 57.5t-195.5 149.5zM340 1622l401 236q45 27 84 -19.5t23 -101.5q-106 -43 -465 -174q-23 -6 -38 14t-5 45z" />
<glyph unicode="&#xce;" horiz-adv-x="856" d="M-109 41q16 47 53.5 76.5t63.5 29.5q25 0 65 -35.5t78.5 -79.5t97 -80t113.5 -36q57 0 133 227.5t124.5 565.5t25.5 598q-4 47 -21.5 58t-64.5 5q-301 -47 -360 -59q-43 -10 -47 47q-4 59 26 90q4 4 10 6q53 8 514 8q78 0 115 -29.5t41 -91.5q16 -188 -16.5 -445 t-98 -494.5t-174 -402.5t-229.5 -165q-119 0 -253.5 57.5t-195.5 149.5zM289 1577q-4 12 2 22q39 57 153.5 138.5t169.5 81.5q70 0 146 -65.5t106 -139.5q-41 -39 -77.5 -50.5t-56 -3t-32.5 26.5q-23 35 -62.5 63.5t-59.5 28.5q-123 0 -226 -127q-23 -4 -41 4.5t-22 20.5z " />
<glyph unicode="&#xcf;" horiz-adv-x="856" d="M-109 41q16 47 53.5 76.5t63.5 29.5q25 0 65 -35.5t78.5 -79.5t97 -80t113.5 -36q57 0 133 227.5t124.5 565.5t25.5 598q-4 47 -21.5 58t-64.5 5q-301 -47 -360 -59q-43 -10 -47 47q-4 59 26 90q4 4 10 6q53 8 514 8q78 0 115 -29.5t41 -91.5q16 -188 -16.5 -445 t-98 -494.5t-174 -402.5t-229.5 -165q-119 0 -253.5 57.5t-195.5 149.5zM246 1675q0 57 30.5 82t73.5 25q39 0 67.5 -25.5t28.5 -64.5q0 -47 -27.5 -77t-74.5 -30q-45 0 -71.5 24.5t-26.5 65.5zM674 1667q0 59 32.5 90t75.5 31t75 -26.5t32 -71.5q0 -43 -35 -75t-82 -32 q-98 0 -98 84z" />
<glyph unicode="&#xd0;" horiz-adv-x="1200" d="M4 1356.5q-6 21.5 0 52.5t23 51q616 84 937.5 13.5t321.5 -314.5q0 -68 -39 -219.5t-114.5 -342.5t-170 -365.5t-221.5 -293t-252 -118.5q-199 0 -131 731q-39 -2 -116 -2q-104 0 -45 141q59 -4 176 -8q31 285 104 709q-170 -8 -448 -54q-19 -2 -25 19.5zM515 183.5 q-5 -150.5 6 -205t32 -54.5q92 0 211 225.5t199.5 522.5t80.5 502q0 201 -364 221q-84 -473 -115 -719h152q37 -2 47 -32t-10 -71l-205 -12q-29 -227 -34 -377.5z" />
<glyph unicode="&#xd1;" horiz-adv-x="1226" d="M2 1346q-8 55 41 104l514 12q133 4 115 -133l-135 -1042q172 492 395 997q12 29 50 39t96.5 -13.5t111.5 -86.5q-84 -285 -121 -554.5t-19.5 -433t83.5 -163.5q82 0 151 168q23 10 41 10t27.5 -11.5t3.5 -27.5q-41 -100 -110.5 -169t-153.5 -69q-55 0 -96.5 22.5 t-76 91.5t-45 182.5t6 312t67.5 462.5q-225 -475 -430 -1032q-51 -10 -74.5 -14t-53.5 -3t-40 17.5t-8 48.5l127 1242q6 74 -80 63l-358 -49q-23 -4 -29 29zM543 1638q27 59 80 92t98 33q59 0 169.5 -61.5t153.5 -61.5q35 0 74 58q31 0 42 -16.5t1 -41.5q-27 -59 -80 -91.5 t-98 -32.5q-74 0 -185.5 61t-138.5 61q-35 0 -73 -57q-31 0 -42 16t-1 41z" />
<glyph unicode="&#xd2;" horiz-adv-x="964" d="M35 477q0 209 49 395.5t119.5 300t138.5 180t115 72.5q78 145 223 146q119 0 200 -147.5t81 -397.5q0 -119 -15 -262q72 12 150 43q25 -16 22.5 -39t-22.5 -31q-94 -41 -162 -59q-61 -385 -235.5 -606.5t-342.5 -221.5q-39 0 -75.5 12.5t-83.5 52.5t-81 104.5t-57.5 183 t-23.5 274.5zM240 520q0 -227 59 -387t145 -160q98 0 183.5 185.5t120.5 490.5q-170 -4 -262.5 109.5t-92.5 355.5q0 92 17 174q-82 -152 -126 -368t-44 -400zM430 1757q0 59 20.5 93t44 34t40.5 -6q127 -92 331 -211q6 -31 -7 -48t-38 -13q-68 12 -193.5 59t-197.5 92z M524 1257q0 -418 236 -487q8 152 8 240q0 260 -96 364q-59 66 -109 19q-39 -38 -39 -136z" />
<glyph unicode="&#xd3;" horiz-adv-x="964" d="M35 477q0 209 49 395.5t119.5 300t138.5 180t115 72.5q78 145 223 146q119 0 200 -147.5t81 -397.5q0 -119 -15 -262q72 12 150 43q25 -16 22.5 -39t-22.5 -31q-94 -41 -162 -59q-61 -385 -235.5 -606.5t-342.5 -221.5q-39 0 -75.5 12.5t-83.5 52.5t-81 104.5t-57.5 183 t-23.5 274.5zM240 520q0 -227 59 -387t145 -160q98 0 183.5 185.5t120.5 490.5q-170 -4 -262.5 109.5t-92.5 355.5q0 92 17 174q-82 -152 -126 -368t-44 -400zM434 1663l402 235q45 27 83.5 -19t22.5 -101q-106 -43 -465 -174q-23 -6 -38 14t-5 45zM524 1257 q0 -418 236 -487q8 152 8 240q0 260 -96 364q-59 66 -109 19q-39 -38 -39 -136z" />
<glyph unicode="&#xd4;" horiz-adv-x="964" d="M35 477q0 209 49 395.5t119.5 300t138.5 180t115 72.5q78 145 223 146q119 0 200 -147.5t81 -397.5q0 -119 -15 -262q72 12 150 43q25 -16 22.5 -39t-22.5 -31q-94 -41 -162 -59q-61 -385 -235.5 -606.5t-342.5 -221.5q-39 0 -75.5 12.5t-83.5 52.5t-81 104.5t-57.5 183 t-23.5 274.5zM240 520q0 -227 59 -387t145 -160q98 0 183.5 185.5t120.5 490.5q-170 -4 -262.5 109.5t-92.5 355.5q0 92 17 174q-82 -152 -126 -368t-44 -400zM395 1618q-4 12 2 22q39 57 154 138.5t170 81.5q70 0 145.5 -65.5t106.5 -139.5q-41 -39 -78 -50.5t-56.5 -3 t-31.5 26.5q-23 35 -62.5 63.5t-60.5 28.5q-123 0 -225 -127q-23 -4 -41.5 4.5t-22.5 20.5zM524 1257q0 -418 236 -487q8 152 8 240q0 260 -96 364q-59 66 -109 19q-39 -38 -39 -136z" />
<glyph unicode="&#xd5;" horiz-adv-x="964" d="M35 477q0 209 49 395.5t119.5 300t138.5 180t115 72.5q78 145 223 146q119 0 200 -147.5t81 -397.5q0 -119 -15 -262q72 12 150 43q25 -16 22.5 -39t-22.5 -31q-94 -41 -162 -59q-61 -385 -235.5 -606.5t-342.5 -221.5q-39 0 -75.5 12.5t-83.5 52.5t-81 104.5t-57.5 183 t-23.5 274.5zM240 520q0 -227 59 -387t145 -160q98 0 183.5 185.5t120.5 490.5q-170 -4 -262.5 109.5t-92.5 355.5q0 92 17 174q-82 -152 -126 -368t-44 -400zM397 1720q27 59 80 92t98 33q59 0 170 -61.5t154 -61.5q35 0 74 58q31 0 42 -16.5t1 -41.5q-27 -59 -80 -92 t-98 -33q-74 0 -185.5 61.5t-138.5 61.5q-35 0 -74 -57q-31 0 -42 16t-1 41zM524 1257q0 -418 236 -487q8 152 8 240q0 260 -96 364q-59 66 -109 19q-39 -38 -39 -136z" />
<glyph unicode="&#xd6;" horiz-adv-x="964" d="M35 477q0 209 49 395.5t119.5 300t138.5 180t115 72.5q78 145 223 146q119 0 200 -147.5t81 -397.5q0 -119 -15 -262q72 12 150 43q25 -16 22.5 -39t-22.5 -31q-94 -41 -162 -59q-61 -385 -235.5 -606.5t-342.5 -221.5q-39 0 -75.5 12.5t-83.5 52.5t-81 104.5t-57.5 183 t-23.5 274.5zM240 520q0 -227 59 -387t145 -160q98 0 183.5 185.5t120.5 490.5q-170 -4 -262.5 109.5t-92.5 355.5q0 92 17 174q-82 -152 -126 -368t-44 -400zM358 1716q0 57 31 82t74 25q39 0 67.5 -25.5t28.5 -64.5q0 -47 -27.5 -77t-74.5 -30q-45 0 -72 24.5t-27 65.5z M524 1257q0 -418 236 -487q8 152 8 240q0 260 -96 364q-59 66 -109 19q-39 -38 -39 -136zM786 1708q0 59 33 90t76 31t74.5 -26.5t31.5 -71.5q0 -43 -34.5 -75t-81.5 -32q-99 0 -99 84z" />
<glyph unicode="&#xd7;" horiz-adv-x="956" d="M114.5 262.5q-8.5 22.5 30.5 59.5l238 221l-188 233q-37 47 -5.5 81t113.5 38l197 -242l278 262q119 -39 47 -104l-260 -238l201 -243q37 -47 2 -81t-117 -36l-205 252l-264 -242q-59 17 -67.5 39.5z" />
<glyph unicode="&#xd8;" horiz-adv-x="964" d="M-82.5 -129q-19.5 25 8.5 66l144 229q-39 143 -39 354q0 262 82 507t218 395.5t285 150.5q154 0 242 -152l127 201q68 10 88.5 -19.5t-10.5 -72.5l-150 -234q45 -145 45 -340q0 -264 -57 -482t-146 -350t-187.5 -203t-190.5 -71q-168 0 -262 195l-119 -184 q-59 -15 -78.5 10zM231 590q0 -78 7 -158l489 778q-63 209 -190 209q-119 0 -212.5 -242.5t-93.5 -586.5zM260 274q57 -287 199 -286q123 0 217 255t94 601q0 115 -12 209z" />
<glyph unicode="&#xd9;" horiz-adv-x="1128" d="M147.5 538.5q2.5 200.5 48.5 449.5t132 499q31 23 67.5 36t67.5 15t57.5 -4t39.5 -22.5t11 -38.5q-88 -199 -143 -418t-71.5 -399.5t-9.5 -329t39 -231.5t77 -83q49 0 126 170t148.5 461t98.5 586q113 86 190 61q61 -18 37 -96q-66 -238 -97.5 -437.5t-30.5 -321.5 t17.5 -208t39 -120.5t40.5 -34.5q80 0 150 168q35 16 58.5 7t12.5 -36q-41 -100 -109.5 -169t-154.5 -69q-102 0 -151.5 76t-69.5 238q-59 -201 -159.5 -319t-198.5 -118q-84 0 -146.5 86.5t-90.5 244t-25.5 358zM510 1696q0 59 20.5 93t44 34t39.5 -6q127 -92 332 -211 q6 -31 -7 -48.5t-38 -13.5q-68 12 -193.5 59.5t-197.5 92.5z" />
<glyph unicode="&#xda;" horiz-adv-x="1128" d="M147.5 538.5q2.5 200.5 48.5 449.5t132 499q31 23 67.5 36t67.5 15t57.5 -4t39.5 -22.5t11 -38.5q-88 -199 -143 -418t-71.5 -399.5t-9.5 -329t39 -231.5t77 -83q49 0 126 170t148.5 461t98.5 586q113 86 190 61q61 -18 37 -96q-66 -238 -97.5 -437.5t-30.5 -321.5 t17.5 -208t39 -120.5t40.5 -34.5q80 0 150 168q35 16 58.5 7t12.5 -36q-41 -100 -109.5 -169t-154.5 -69q-102 0 -151.5 76t-69.5 238q-59 -201 -159.5 -319t-198.5 -118q-84 0 -146.5 86.5t-90.5 244t-25.5 358zM651 1581l402 236q45 27 84 -19.5t22 -101.5 q-106 -43 -465 -174q-23 -6 -38 14t-5 45z" />
<glyph unicode="&#xdb;" horiz-adv-x="1128" d="M147.5 538.5q2.5 200.5 48.5 449.5t132 499q31 23 67.5 36t67.5 15t57.5 -4t39.5 -22.5t11 -38.5q-88 -199 -143 -418t-71.5 -399.5t-9.5 -329t39 -231.5t77 -83q49 0 126 170t148.5 461t98.5 586q113 86 190 61q61 -18 37 -96q-66 -238 -97.5 -437.5t-30.5 -321.5 t17.5 -208t39 -120.5t40.5 -34.5q80 0 150 168q35 16 58.5 7t12.5 -36q-41 -100 -109.5 -169t-154.5 -69q-102 0 -151.5 76t-69.5 238q-59 -201 -159.5 -319t-198.5 -118q-84 0 -146.5 86.5t-90.5 244t-25.5 358zM500 1640.5q-4 12.5 2 22.5q37 55 131 115.5t151 60.5 q74 0 160 -79t129 -187q-41 -39 -78 -51.5t-58.5 -3t-29.5 27.5q-25 57 -74 105.5t-85 48.5q-106 0 -185 -84q-23 -4 -41 4t-22 20.5z" />
<glyph unicode="&#xdc;" horiz-adv-x="1128" d="M147.5 538.5q2.5 200.5 48.5 449.5t132 499q31 23 67.5 36t67.5 15t57.5 -4t39.5 -22.5t11 -38.5q-88 -199 -143 -418t-71.5 -399.5t-9.5 -329t39 -231.5t77 -83q49 0 126 170t148.5 461t98.5 586q113 86 190 61q61 -18 37 -96q-66 -238 -97.5 -437.5t-30.5 -321.5 t17.5 -208t39 -120.5t40.5 -34.5q80 0 150 168q35 16 58.5 7t12.5 -36q-41 -100 -109.5 -169t-154.5 -69q-102 0 -151.5 76t-69.5 238q-59 -201 -159.5 -319t-198.5 -118q-84 0 -146.5 86.5t-90.5 244t-25.5 358zM473 1716q0 57 31 82t74 25q39 0 67.5 -25.5t28.5 -64.5 q0 -47 -28 -77t-75 -30q-45 0 -71.5 24.5t-26.5 65.5zM860 1626q0 59 33 90t76 31t74.5 -26.5t31.5 -71.5q0 -43 -34.5 -75t-82.5 -32q-98 0 -98 84z" />
<glyph unicode="&#xdd;" horiz-adv-x="950" d="M-72 -20q4 47 36 95t77 48q35 0 174 -110.5t195 -110.5q78 0 156.5 201.5t124.5 445.5t63 444q-57 -137 -125 -233t-125.5 -139t-97 -59.5t-66.5 -16.5q-201 0 -21 831q8 39 -5 62.5t-56 13.5l-283 -66q-41 -6 -43 39q-2 55 43 86q2 0 170 20.5t222 18.5q94 -2 133 -38.5 t22 -104.5q-76 -328 -99.5 -509t11.5 -187q63 0 146.5 132t207.5 447q16 43 91 45t127 -59q-51 -408 -151.5 -744.5t-224.5 -527t-241 -190.5q-84 0 -227.5 53.5t-233.5 112.5zM598 1663l401 235q45 27 84 -19t23 -101q-106 -43 -465 -174q-23 -6 -38 14t-5 45z" />
<glyph unicode="&#xde;" horiz-adv-x="1224" d="M0 432q0 45 15.5 85t41 64.5t53 37t56.5 6t47 -30.5q-39 -84 -38 -163t59.5 -137t156.5 -58q45 0 70 4q10 104 39.5 393t46.5 448q-180 -25 -387 -86q-31 -10 -29 35q6 59 33 88q221 49 393 68l27 276q88 61 159 51q53 -8 48 -65l-31 -250q279 2 408.5 -87t129.5 -243 q0 -207 -199.5 -397t-463.5 -281l-37 -305q-43 -16 -81 -20t-63.5 9t-23.5 48t21 223q-49 -6 -99 -6q-352 0 -352 293zM647 289q182 74 307 215t125 303q0 119 -80.5 194.5t-253.5 85.5z" />
<glyph unicode="&#xdf;" horiz-adv-x="790" d="M55 -483q-47 930 104.5 1453t436.5 523q172 0 205 -160q35 -168 -94 -395q-90 -160 -232 -279q143 6 222 -75.5t79 -206.5q0 -156 -101.5 -295t-230.5 -139q-80 0 -125 68.5t-45 158.5q0 117 53.5 142.5t110.5 -40.5q-33 -104 -24.5 -161.5t26 -77t43.5 -19.5 q47 0 86 95.5t39 203.5q0 117 -59.5 187.5t-186.5 54.5q-23 18 -27.5 43t11.5 45q137 111 238 354q98 238 57 353q-20 57 -80 57q-170 0 -264 -517t-104 -1408q-43 -18 -75 -21.5t-48.5 11t-14.5 45.5z" />
<glyph unicode="&#xe0;" d="M33 303q0 125 41 242t133 199.5t215 82.5q78 0 134 -49t38 -139q41 -25 12 -129q-57 -195 -57 -316.5t67 -121.5q80 0 150 168q23 18 51.5 8t20.5 -37q-29 -98 -102.5 -168t-162.5 -72q-113 0 -147 131q-76 -129 -184 -129q-104 0 -156.5 92.5t-52.5 237.5zM213 260 q0 -190 66 -190q33 0 60.5 36.5t54 137t38.5 254.5q-41 10 -39 55q25 27 39 68t4 74.5t-49 33.5q-78 0 -126 -151.5t-48 -317.5zM217 1112q14 57 43 84t52.5 25t35.5 -17q104 -127 213 -235q-2 -33 -19.5 -46.5t-37.5 -2.5q-172 75 -287 192z" />
<glyph unicode="&#xe1;" d="M33 303q0 125 41 242t133 199.5t215 82.5q78 0 134 -49t38 -139q41 -25 12 -129q-57 -195 -57 -316.5t67 -121.5q80 0 150 168q23 18 51.5 8t20.5 -37q-29 -98 -102.5 -168t-162.5 -72q-113 0 -147 131q-76 -129 -184 -129q-104 0 -156.5 92.5t-52.5 237.5zM213 260 q0 -190 66 -190q33 0 60.5 36.5t54 137t38.5 254.5q-41 10 -39 55q25 27 39 68t4 74.5t-49 33.5q-78 0 -126 -151.5t-48 -317.5zM238 961q197 207 276 299q37 39 83 11t44 -87l-330 -258q-29 -20 -53 -7t-20 42z" />
<glyph unicode="&#xe2;" d="M33 303q0 125 41 242t133 199.5t215 82.5q78 0 134 -49t38 -139q41 -25 12 -129q-57 -195 -57 -316.5t67 -121.5q80 0 150 168q23 18 51.5 8t20.5 -37q-29 -98 -102.5 -168t-162.5 -72q-113 0 -147 131q-76 -129 -184 -129q-104 0 -156.5 92.5t-52.5 237.5zM168 938 q-4 12 2 23q51 76 137 162.5t139 86.5q33 0 63 -23.5t57.5 -71.5t42 -77.5t36.5 -83.5q4 -10 6 -14q-43 -33 -76.5 -44t-53 -4t-25.5 26q-16 51 -43 107t-43 56q-43 0 -179 -168q-23 -4 -41 4.5t-22 20.5zM213 260q0 -190 66 -190q33 0 60.5 36.5t54 137t38.5 254.5 q-41 10 -39 55q25 27 39 68t4 74.5t-49 33.5q-78 0 -126 -151.5t-48 -317.5z" />
<glyph unicode="&#xe3;" d="M33 303q0 125 41 242t133 199.5t215 82.5q78 0 134 -49t38 -139q41 -25 12 -129q-57 -195 -57 -316.5t67 -121.5q80 0 150 168q23 18 51.5 8t20.5 -37q-29 -98 -102.5 -168t-162.5 -72q-113 0 -147 131q-76 -129 -184 -129q-104 0 -156.5 92.5t-52.5 237.5zM174 1055 q27 59 80 92t98 33q59 0 118.5 -61.5t102.5 -61.5q35 0 74 57q31 0 42 -16.5t1 -40.5q-27 -59 -80 -92t-98 -33t-80 19.5t-53.5 42t-42 42t-45.5 19.5q-35 0 -74 -58q-31 0 -42 16.5t-1 41.5zM213 260q0 -190 66 -190q33 0 60.5 36.5t54 137t38.5 254.5q-41 10 -39 55 q25 27 39 68t4 74.5t-49 33.5q-78 0 -126 -151.5t-48 -317.5z" />
<glyph unicode="&#xe4;" d="M33 303q0 125 41 242t133 199.5t215 82.5q78 0 134 -49t38 -139q41 -25 12 -129q-57 -195 -57 -316.5t67 -121.5q80 0 150 168q23 18 51.5 8t20.5 -37q-29 -98 -102.5 -168t-162.5 -72q-113 0 -147 131q-76 -129 -184 -129q-104 0 -156.5 92.5t-52.5 237.5zM147 1049 q0 57 31 81.5t74 24.5q39 0 67.5 -25.5t28.5 -64.5q0 -47 -27.5 -77t-74.5 -30q-45 0 -72 25t-27 66zM213 260q0 -190 66 -190q33 0 60.5 36.5t54 137t38.5 254.5q-41 10 -39 55q25 27 39 68t4 74.5t-49 33.5q-78 0 -126 -151.5t-48 -317.5zM473 1040q0 59 33 90t76 31 t74.5 -26.5t31.5 -71.5q0 -43 -35 -75t-82 -32q-98 0 -98 84z" />
<glyph unicode="&#xe5;" d="M33 303q0 125 41 242t133 199.5t215 82.5q78 0 134 -49t38 -139q41 -25 12 -129q-57 -195 -57 -316.5t67 -121.5q80 0 150 168q23 18 51.5 8t20.5 -37q-29 -98 -102.5 -168t-162.5 -72q-113 0 -147 131q-76 -129 -184 -129q-104 0 -156.5 92.5t-52.5 237.5zM213 260 q0 -190 66 -190q33 0 60.5 36.5t54 137t38.5 254.5q-41 10 -39 55q25 27 39 68t4 74.5t-49 33.5q-78 0 -126 -151.5t-48 -317.5zM244 1049q0 88 54 146t155 58q147 0 147 -137q0 -88 -59.5 -151.5t-155.5 -63.5q-141 1 -141 148zM356 1118q0 -59 28 -93t62 -34q37 0 37 70 q0 117 -65 117q-25 0 -43.5 -17.5t-18.5 -42.5z" />
<glyph unicode="&#xe6;" horiz-adv-x="931" d="M29 289q0 215 107.5 365.5t240.5 150.5q49 0 102 -17l10 70q6 2 27 11.5t29 11.5t24.5 7t24.5 2t17.5 -7t14.5 -17.5t5 -31.5q59 33 108 32q86 0 128 -52t42 -136q0 -154 -85 -293t-212 -242q39 -141 148 -141q68 0 132 78t105 201q27 14 44.5 11t25.5 -13.5t6 -22.5 q-20 -113 -126.5 -225.5t-227.5 -112.5q-94 0 -169 56.5t-110 162.5q-78 -186 -209 -186q-82 0 -142 80t-60 258zM209 221q0 -80 18.5 -127t46.5 -47q27 0 54.5 33t57.5 123t48 225l29 223q-12 18 -48 34.5t-63 16.5q-76 0 -109.5 -153.5t-33.5 -327.5zM594 291q0 -39 2 -55 q164 195 164 462q0 66 -33 66q-12 0 -28.5 -16.5t-35 -54.5t-34 -90t-25.5 -134t-10 -178z" />
<glyph unicode="&#xe7;" horiz-adv-x="567" d="M53 287q0 233 106.5 406t252.5 173q109 0 132 -128t-32 -255t-139 -127q-25 0 -37 8.5t-10 22.5q0 2 13 45t29.5 101.5t31 118t14.5 100.5t-21 41q-68 0 -118 -153t-50 -314q0 -150 50.5 -226.5t117 -73.5t136 71.5t104.5 183.5q27 18 53.5 8t22.5 -33 q-35 -143 -134.5 -230t-218.5 -98q-14 -25 1.5 -45t42 -32.5t51 -41t24.5 -67.5q0 -86 -68.5 -141.5t-160.5 -55.5q-119 0 -131 54q-8 41 51 65q4 0 8 2q49 -70 98 -69q33 0 51.5 20.5t18.5 50.5q0 37 -28.5 64.5t-57.5 41t-43 42t16 65.5q18 31 50 51q-98 20 -162 109.5 t-64 245.5z" />
<glyph unicode="&#xe8;" horiz-adv-x="567" d="M51 301q0 164 36 284t90 176t103.5 80.5t94.5 24.5q86 0 128 -52t42 -136q0 -154 -85 -293t-212 -242q39 -141 147 -141q68 0 132.5 78t105.5 201q27 14 44 11t25.5 -13.5t6.5 -22.5q-20 -113 -127 -225.5t-228 -112.5q-127 0 -215 100.5t-88 282.5zM178 1112 q14 57 43 84t52.5 25t35.5 -17q104 -127 213 -235q-2 -33 -19.5 -46.5t-37.5 -2.5q-172 75 -287 192zM229 291q0 -39 2 -55q164 195 164 462q0 66 -33 66q-12 0 -28.5 -16.5t-34.5 -54.5t-33.5 -90t-26 -134t-10.5 -178z" />
<glyph unicode="&#xe9;" horiz-adv-x="567" d="M51 301q0 164 36 284t90 176t103.5 80.5t94.5 24.5q86 0 128 -52t42 -136q0 -154 -85 -293t-212 -242q39 -141 147 -141q68 0 132.5 78t105.5 201q27 14 44 11t25.5 -13.5t6.5 -22.5q-20 -113 -127 -225.5t-228 -112.5q-127 0 -215 100.5t-88 282.5zM188 961 q197 207 277 299q37 39 83 11t44 -87l-330 -258q-29 -20 -53.5 -7t-20.5 42zM229 291q0 -39 2 -55q164 195 164 462q0 66 -33 66q-12 0 -28.5 -16.5t-34.5 -54.5t-33.5 -90t-26 -134t-10.5 -178z" />
<glyph unicode="&#xea;" horiz-adv-x="567" d="M51 301q0 164 36 284t90 176t103.5 80.5t94.5 24.5q86 0 128 -52t42 -136q0 -154 -85 -293t-212 -242q39 -141 147 -141q68 0 132.5 78t105.5 201q27 14 44 11t25.5 -13.5t6.5 -22.5q-20 -113 -127 -225.5t-228 -112.5q-127 0 -215 100.5t-88 282.5zM154 938q-4 12 2 23 q51 76 137 162.5t139 86.5q33 0 62.5 -23.5t57.5 -71.5t42 -77.5t37 -83.5q4 -10 6 -14q-43 -33 -77 -44t-53.5 -4t-25.5 26q-16 51 -42.5 107t-43.5 56q-43 0 -178 -168q-23 -4 -41 4.5t-22 20.5zM229 291q0 -39 2 -55q164 195 164 462q0 66 -33 66q-12 0 -28.5 -16.5 t-34.5 -54.5t-33.5 -90t-26 -134t-10.5 -178z" />
<glyph unicode="&#xeb;" horiz-adv-x="567" d="M51 301q0 164 36 284t90 176t103.5 80.5t94.5 24.5q86 0 128 -52t42 -136q0 -154 -85 -293t-212 -242q39 -141 147 -141q68 0 132.5 78t105.5 201q27 14 44 11t25.5 -13.5t6.5 -22.5q-20 -113 -127 -225.5t-228 -112.5q-127 0 -215 100.5t-88 282.5zM88 1049 q0 57 31 81.5t74 24.5q39 0 67.5 -25.5t28.5 -64.5q0 -47 -28 -77t-75 -30q-45 0 -71.5 25t-26.5 66zM229 291q0 -39 2 -55q164 195 164 462q0 66 -33 66q-12 0 -28.5 -16.5t-34.5 -54.5t-33.5 -90t-26 -134t-10.5 -178zM414 1040q0 59 32.5 90t75.5 31t75 -26.5t32 -71.5 q0 -43 -35 -75t-82 -32q-98 0 -98 84z" />
<glyph unicode="&#xec;" horiz-adv-x="368" d="M6 1112q14 57 43 84t52.5 25t35.5 -17q104 -127 213 -235q-2 -33 -19.5 -46.5t-37.5 -2.5q-172 75 -287 192zM59.5 288q-10.5 171 57.5 455q74 31 118 32t55 -17.5t5 -46.5q-39 -168 -60.5 -285t-25.5 -198t12.5 -118.5t52.5 -37.5q80 0 150 168q23 18 51.5 8t20.5 -37 q-29 -98 -103 -168t-162 -72q-72 0 -116.5 73t-55 244z" />
<glyph unicode="&#xed;" horiz-adv-x="368" d="M59.5 288q-10.5 171 57.5 455q74 31 118 32t55 -17.5t5 -46.5q-39 -168 -60.5 -285t-25.5 -198t12.5 -118.5t52.5 -37.5q80 0 150 168q23 18 51.5 8t20.5 -37q-29 -98 -103 -168t-162 -72q-72 0 -116.5 73t-55 244zM143 961q197 207 277 299q37 39 83 11t44 -87 l-330 -258q-29 -20 -53.5 -7t-20.5 42z" />
<glyph unicode="&#xee;" horiz-adv-x="368" d="M6 938q-4 12 2 23q51 76 137 162.5t140 86.5q33 0 62.5 -23.5t57 -71.5t42 -77.5t36.5 -83.5q4 -10 6 -14q-43 -33 -76.5 -44t-53 -4t-25.5 26q-16 51 -43 107t-43 56q-43 0 -178 -168q-23 -4 -41.5 4.5t-22.5 20.5zM59.5 288q-10.5 171 57.5 455q74 31 118 32t55 -17.5 t5 -46.5q-39 -168 -60.5 -285t-25.5 -198t12.5 -118.5t52.5 -37.5q80 0 150 168q23 18 51.5 8t20.5 -37q-29 -98 -103 -168t-162 -72q-72 0 -116.5 73t-55 244z" />
<glyph unicode="&#xef;" horiz-adv-x="368" d="M-27 1049q0 57 31 81.5t74 24.5q39 0 67.5 -25.5t28.5 -64.5q0 -47 -27.5 -77t-74.5 -30q-45 0 -72 25t-27 66zM59.5 288q-10.5 171 57.5 455q74 31 118 32t55 -17.5t5 -46.5q-39 -168 -60.5 -285t-25.5 -198t12.5 -118.5t52.5 -37.5q80 0 150 168q23 18 51.5 8t20.5 -37 q-29 -98 -103 -168t-162 -72q-72 0 -116.5 73t-55 244zM299 1040q0 59 33 90t76 31t74.5 -26.5t31.5 -71.5q0 -43 -35 -75t-82 -32q-98 0 -98 84z" />
<glyph unicode="&#xf0;" horiz-adv-x="700" d="M29 309q0 227 128 390t306 114q-18 137 -55 258l-91 -43q-63 -27 -90.5 -4t-11.5 88l147 72q-82 166 -219 264q2 33 19.5 49t50.5 4q162 -88 274 -258l109 53q41 14 65.5 -6t14.5 -92l-129 -61q104 -215 104 -441q0 -186 -46 -335.5t-114.5 -230.5t-134 -123t-116.5 -42 q-94 0 -152.5 84t-58.5 260zM209 274q0 -82 14.5 -135t28.5 -67.5t29 -14.5q66 0 131 157t65 343q0 41 -4 119q-143 100 -203.5 -19t-60.5 -383z" />
<glyph unicode="&#xf1;" d="M14 45q4 252 70 746l74 32q51 23 86 7.5t28 -54.5q-8 -49 -55 -270t-61 -338q139 369 280 639q16 31 46 42t70 -5.5t77 -61.5q-55 -258 -67.5 -427t5 -226t49.5 -57q80 0 150 168q23 18 51.5 8t20.5 -37q-29 -98 -102.5 -168t-162.5 -70q-119 0 -160.5 166t-0.5 441 q-119 -252 -248 -588q-80 -25 -115 -8.5t-35 61.5zM123 1055q27 59 80 92t98 33q59 0 118.5 -61.5t102.5 -61.5q35 0 74 57q31 0 42 -16.5t1 -40.5q-27 -59 -80 -92t-98 -33t-80 19.5t-53.5 42t-42 42t-45.5 19.5q-35 0 -74 -58q-31 0 -42 16.5t-1 41.5z" />
<glyph unicode="&#xf2;" horiz-adv-x="700" d="M41 311q0 129 29.5 231.5t73.5 159t88 83t79 20.5q47 45 103 45q90 0 149.5 -72.5t59.5 -212.5q0 -12 -1 -33.5t-1 -31.5q152 47 188 280q25 8 39 -1t14 -27q0 -102 -67.5 -205t-184.5 -135q-33 -203 -139 -321t-199 -118q-33 0 -66.5 12.5t-74.5 44t-65.5 104.5 t-24.5 177zM170 1112q14 57 43 84t52.5 25t35.5 -17q104 -127 213 -235q-2 -33 -19.5 -46.5t-37.5 -2.5q-172 75 -287 192zM213 344q4 -119 37 -200t74 -81q109 0 145 340q-90 14 -155.5 68.5t-67.5 128.5q-37 -137 -33 -256zM375 741q-18 -57 12.5 -124.5t89.5 -102.5v43 q0 145 -59 193q-33 24 -43 -9z" />
<glyph unicode="&#xf3;" horiz-adv-x="700" d="M41 311q0 129 29.5 231.5t73.5 159t88 83t79 20.5q47 45 103 45q90 0 149.5 -72.5t59.5 -212.5q0 -12 -1 -33.5t-1 -31.5q152 47 188 280q25 8 39 -1t14 -27q0 -102 -67.5 -205t-184.5 -135q-33 -203 -139 -321t-199 -118q-33 0 -66.5 12.5t-74.5 44t-65.5 104.5 t-24.5 177zM213 344q4 -119 37 -200t74 -81q109 0 145 340q-90 14 -155.5 68.5t-67.5 128.5q-37 -137 -33 -256zM287 961q197 207 276 299q37 39 83 11t44 -87l-330 -258q-29 -20 -53 -7t-20 42zM375 741q-18 -57 12.5 -124.5t89.5 -102.5v43q0 145 -59 193q-33 24 -43 -9z " />
<glyph unicode="&#xf4;" horiz-adv-x="700" d="M41 311q0 129 29.5 231.5t73.5 159t88 83t79 20.5q47 45 103 45q90 0 149.5 -72.5t59.5 -212.5q0 -12 -1 -33.5t-1 -31.5q152 47 188 280q25 8 39 -1t14 -27q0 -102 -67.5 -205t-184.5 -135q-33 -203 -139 -321t-199 -118q-33 0 -66.5 12.5t-74.5 44t-65.5 104.5 t-24.5 177zM182 938q-4 12 2 23q51 76 137.5 162.5t139.5 86.5q33 0 62.5 -23.5t57 -71.5t42 -77.5t36.5 -83.5q4 -10 7 -14q-43 -33 -77 -44t-53.5 -4t-25.5 26q-16 51 -43 107t-43 56q-43 0 -178 -168q-23 -4 -41.5 4.5t-22.5 20.5zM213 344q4 -119 37 -200t74 -81 q109 0 145 340q-90 14 -155.5 68.5t-67.5 128.5q-37 -137 -33 -256zM375 741q-18 -57 12.5 -124.5t89.5 -102.5v43q0 145 -59 193q-33 24 -43 -9z" />
<glyph unicode="&#xf5;" horiz-adv-x="700" d="M41 311q0 129 29.5 231.5t73.5 159t88 83t79 20.5q47 45 103 45q90 0 149.5 -72.5t59.5 -212.5q0 -12 -1 -33.5t-1 -31.5q152 47 188 280q25 8 39 -1t14 -27q0 -102 -67.5 -205t-184.5 -135q-33 -203 -139 -321t-199 -118q-33 0 -66.5 12.5t-74.5 44t-65.5 104.5 t-24.5 177zM178 1055q27 59 80 92t98 33q59 0 119 -61.5t103 -61.5q35 0 73 57q31 0 42.5 -16.5t0.5 -40.5q-27 -59 -80 -92t-98 -33t-80 19.5t-53 42t-42 42t-46 19.5q-35 0 -74 -58q-31 0 -42 16.5t-1 41.5zM213 344q4 -119 37 -200t74 -81q109 0 145 340 q-90 14 -155.5 68.5t-67.5 128.5q-37 -137 -33 -256zM375 741q-18 -57 12.5 -124.5t89.5 -102.5v43q0 145 -59 193q-33 24 -43 -9z" />
<glyph unicode="&#xf6;" horiz-adv-x="700" d="M41 311q0 129 29.5 231.5t73.5 159t88 83t79 20.5q47 45 103 45q90 0 149.5 -72.5t59.5 -212.5q0 -12 -1 -33.5t-1 -31.5q152 47 188 280q25 8 39 -1t14 -27q0 -102 -67.5 -205t-184.5 -135q-33 -203 -139 -321t-199 -118q-33 0 -66.5 12.5t-74.5 44t-65.5 104.5 t-24.5 177zM133 1049q0 57 31 81.5t74 24.5q39 0 67.5 -25.5t28.5 -64.5q0 -47 -27.5 -77t-75.5 -30q-45 0 -71.5 25t-26.5 66zM213 344q4 -119 37 -200t74 -81q109 0 145 340q-90 14 -155.5 68.5t-67.5 128.5q-37 -137 -33 -256zM375 741q-18 -57 12.5 -124.5t89.5 -102.5 v43q0 145 -59 193q-33 24 -43 -9zM459 1040q0 59 32.5 90t75.5 31t75 -26.5t32 -71.5q0 -43 -35 -75t-82 -32q-98 0 -98 84z" />
<glyph unicode="&#xf7;" horiz-adv-x="1114" d="M123 586q8 41 55 41l805 -9q29 -70 0 -106.5t-86 -34.5l-758 10q-24 58 -16 99zM410 137q-4 53 30.5 96t85.5 43q123 0 133 -129q4 -51 -31.5 -87.5t-84.5 -36.5q-55 0 -92 30.5t-41 83.5zM475 926q0 53 37 97t94 44q47 0 73 -29.5t26 -72.5q0 -53 -36 -94.5t-98 -41.5 q-47 0 -71.5 28t-24.5 69z" />
<glyph unicode="&#xf8;" horiz-adv-x="665" d="M-8 -188l104 227q-100 100 -100 280q0 193 105.5 352.5t265.5 159.5q43 0 84 -12l102 225q49 14 76.5 -2t11.5 -47l-106 -223q109 -92 108 -262q0 -193 -114.5 -365t-268.5 -172q-51 0 -92 19l-105 -221q-41 -16 -63 -3t-8 44zM168 414q-6 -90 16 -178l228 499 q-25 14 -50 15q-70 0 -127 -87t-67 -249zM231 125q41 -63 91 -64q55 0 102 121t59 299q4 88 -12 154z" />
<glyph unicode="&#xf9;" horiz-adv-x="716" d="M42 395.5q13 184.5 77 403.5q55 14 92 18t55.5 1t24.5 -15t4 -23.5t-8 -31.5q-55 -174 -72.5 -326t-0.5 -234t58 -82q29 0 57.5 52.5t58.5 187.5t48 338q96 72 166 57q43 -8 33 -53q-41 -166 -56.5 -307t-4 -225t48.5 -84q80 0 149 168q23 18 51.5 8t20.5 -37 q-29 -100 -98.5 -169t-155.5 -69q-150 0 -168 228q-66 -227 -180.5 -227.5t-163.5 118.5t-36 303.5zM178 1112q14 57 43 84t52.5 25t35.5 -17q104 -127 213 -235q-2 -33 -19.5 -46.5t-37.5 -2.5q-172 75 -287 192z" />
<glyph unicode="&#xfa;" horiz-adv-x="716" d="M42 395.5q13 184.5 77 403.5q55 14 92 18t55.5 1t24.5 -15t4 -23.5t-8 -31.5q-55 -174 -72.5 -326t-0.5 -234t58 -82q29 0 57.5 52.5t58.5 187.5t48 338q96 72 166 57q43 -8 33 -53q-41 -166 -56.5 -307t-4 -225t48.5 -84q80 0 149 168q23 18 51.5 8t20.5 -37 q-29 -100 -98.5 -169t-155.5 -69q-150 0 -168 228q-66 -227 -180.5 -227.5t-163.5 118.5t-36 303.5zM270 961q197 207 277 299q37 39 83 11t44 -87l-330 -258q-29 -20 -53.5 -7t-20.5 42z" />
<glyph unicode="&#xfb;" horiz-adv-x="716" d="M42 395.5q13 184.5 77 403.5q55 14 92 18t55.5 1t24.5 -15t4 -23.5t-8 -31.5q-55 -174 -72.5 -326t-0.5 -234t58 -82q29 0 57.5 52.5t58.5 187.5t48 338q96 72 166 57q43 -8 33 -53q-41 -166 -56.5 -307t-4 -225t48.5 -84q80 0 149 168q23 18 51.5 8t20.5 -37 q-29 -100 -98.5 -169t-155.5 -69q-150 0 -168 228q-66 -227 -180.5 -227.5t-163.5 118.5t-36 303.5zM170 938q-4 12 2 23q51 76 137 162.5t140 86.5q33 0 62.5 -23.5t57 -71.5t42 -77.5t36.5 -83.5q4 -10 6 -14q-43 -33 -76.5 -44t-53 -4t-25.5 26q-16 51 -43 107t-43 56 q-43 0 -179 -168q-23 -4 -41 4.5t-22 20.5z" />
<glyph unicode="&#xfc;" horiz-adv-x="716" d="M42 395.5q13 184.5 77 403.5q55 14 92 18t55.5 1t24.5 -15t4 -23.5t-8 -31.5q-55 -174 -72.5 -326t-0.5 -234t58 -82q29 0 57.5 52.5t58.5 187.5t48 338q96 72 166 57q43 -8 33 -53q-41 -166 -56.5 -307t-4 -225t48.5 -84q80 0 149 168q23 18 51.5 8t20.5 -37 q-29 -100 -98.5 -169t-155.5 -69q-150 0 -168 228q-66 -227 -180.5 -227.5t-163.5 118.5t-36 303.5zM129 1049q0 57 30.5 81.5t73.5 24.5q39 0 68 -25.5t29 -64.5q0 -47 -28 -77t-75 -30q-45 0 -71.5 25t-26.5 66zM455 1040q0 59 32.5 90t75.5 31t75 -26.5t32 -71.5 q0 -43 -35 -75t-82 -32q-98 0 -98 84z" />
<glyph unicode="&#xfd;" horiz-adv-x="684" d="M-150 -467q0 39 30 62.5t57 23.5q33 -45 53 -68.5t67 -54.5t93 -31q195 0 282 736q-29 -117 -83 -172.5t-107 -55.5q-115 0 -165 124t-34 315.5t88 406.5q90 23 136 21t48 -22.5t-6 -49.5q-63 -172 -83.5 -329.5t-3 -245t60.5 -87.5q100 0 155 517q98 74 170 57 q45 -8 39 -53l-51 -400q-45 -414 -186.5 -628.5t-300.5 -214.5q-53 0 -108.5 13t-103 49t-47.5 87zM285 942q197 207 276 299q37 39 83 11.5t44 -87.5l-330 -258q-29 -20 -53 -7t-20 42z" />
<glyph unicode="&#xfe;" horiz-adv-x="677" d="M-31 -563q121 1460 215 2001q35 41 89.5 54t89 -14.5t20.5 -88.5q-88 -360 -135 -644q88 96 184 101q86 0 140.5 -83t54.5 -202q0 -227 -113 -401t-215 -174q-57 0 -135 30q-16 -131 -41 -575q-47 -35 -84 -43t-53.5 4t-16.5 35zM170 127q74 -59 127 -59q70 0 122 158.5 t50 314.5q0 90 -25.5 144t-62.5 54q-59 0 -108.5 -103.5t-77.5 -281.5q-17 -123 -25 -227z" />
<glyph unicode="&#xff;" horiz-adv-x="684" d="M-150 -467q0 39 30 62.5t57 23.5q33 -45 53 -68.5t67 -54.5t93 -31q195 0 282 736q-29 -117 -83 -172.5t-107 -55.5q-115 0 -165 124t-34 315.5t88 406.5q90 23 136 21t48 -22.5t-6 -49.5q-63 -172 -83.5 -329.5t-3 -245t60.5 -87.5q100 0 155 517q98 74 170 57 q45 -8 39 -53l-51 -400q-45 -414 -186.5 -628.5t-300.5 -214.5q-53 0 -108.5 13t-103 49t-47.5 87zM143 1049q0 57 31 81.5t74 24.5q39 0 67.5 -25.5t28.5 -64.5q0 -47 -27.5 -77t-74.5 -30q-45 0 -72 25t-27 66zM469 1040q0 59 33 90t76 31t74.5 -26.5t31.5 -71.5 q0 -43 -35 -75t-82 -32q-98 0 -98 84z" />
<glyph unicode="&#x152;" horiz-adv-x="1740" d="M1024 709q-22 69 -22 146q0 130 63 282q102 240 291 352q115 70 240 70q133 0 196.5 -57.5t63.5 -180.5q0 -119 -56.5 -228.5t-117.5 -109.5q-27 0 -51.5 11.5t-26.5 27.5q25 51 44 118.5t32 143.5q4 26 4 49q0 44 -16 78q-24 51 -82 51q-150 0 -265 -202 q-104 -189 -104 -390q0 -211 125 -252q23 -6 49 -6q70 0 162 39q20 8 37.5 8t30.5 -8q24 -14 24 -53v-12q-258 -152 -324 -361q-18 -59 -18 -108q0 -77 45 -131q45 -51 117 -52q88 0 179 85t163 262q23 16 54 10q24 -5 24 -22q0 -6 -2 -13q-70 -209 -208.5 -322.5 t-283.5 -113.5q-104 0 -178 61.5t-95 154.5q-7 28 -7 60q0 72 34 159q49 126 174 243q-232 6 -295 211zM35 477q0 209 49 395.5t119.5 300t138.5 180t115 72.5q78 145 223 146q119 0 200 -147.5t81 -397.5q0 -119 -15 -262q72 12 150 43q23 -15 22 -36q0 -25 -22 -34 q-94 -41 -162 -59q-61 -385 -235.5 -606.5t-342.5 -221.5q-39 0 -75.5 12.5t-83.5 52.5t-81 104.5t-57.5 183t-23.5 274.5zM240 520q0 -227 59 -387t145 -160q98 0 183.5 185.5t120.5 490.5h-12q-161 0 -251 110q-92 114 -92 355q0 92 17 174q-82 -152 -126 -368t-44 -400z M524 1257q0 -418 236 -487q8 152 8 240q0 260 -96 364q-35 38 -66 38q-22 0 -43 -19q-39 -38 -39 -136z" />
<glyph unicode="&#x153;" horiz-adv-x="1267" d="M751 301q0 164 36 284t90 176t103.5 80.5t94.5 24.5q86 0 128 -52t42 -136q0 -154 -85 -293t-212 -242q39 -141 147 -141q68 0 132.5 78t105.5 201q27 14 44 11t25 -13q7 -8 7 -18q0 -95 -127 -230q-106 -113 -228 -113q-127 0 -215 100.5t-88 282.5zM929 291 q0 -39 2 -55q164 195 164 462q0 66 -33 66q-12 0 -28.5 -16.5t-34.5 -54.5t-33.5 -90t-26 -134t-10.5 -178zM41 311q0 129 29.5 231.5t73.5 159t88 82.5q36 22 66 22q7 0 13 -1q47 45 103 45q90 0 149.5 -72.5t59.5 -212.5q0 -12 -1 -33.5t-1 -31.5q152 47 188 280 q25 8 39 -1t14 -27q0 -102 -67.5 -205t-184.5 -135q-33 -203 -139 -321t-199 -118q-33 0 -66.5 12.5t-74.5 44t-65.5 104.5t-24.5 177zM213 344q4 -119 37 -200t74 -81q109 0 145 340q-90 14 -155.5 68.5t-67.5 128.5q-33 -123 -33 -232v-24zM375 741q-7 -22 -7 -44 q0 -38 19 -81q31 -68 90 -102v43q0 145 -59 193q-14 11 -24 10q-13 0 -19 -19z" />
<glyph unicode="&#x178;" horiz-adv-x="950" d="M129 1786q0 57 31 81.5t74 24.5q39 0 67.5 -25.5t28.5 -64.5q0 -47 -27.5 -77t-74.5 -30q-45 0 -72 25t-27 66zM455 1777q0 59 33 90t76 31t74.5 -26.5t31.5 -71.5q0 -43 -35 -75t-82 -32q-98 0 -98 84zM-72 -20q4 47 36 95t77 48q35 0 174 -110.5t195 -110.5 q78 0 156.5 201.5t124.5 445.5t63 444q-57 -137 -125 -233t-125.5 -139t-97 -59.5t-66.5 -16.5q-106 0 -106 231q0 207 85 600q3 15 4 28q0 20 -9 35q-13 24 -56 13l-283 -66q-5 -1 -9 0q-34 0 -34 44q0 52 43 81q2 0 170 21q153 19 211 19q6 0 11 -1q94 -2 133 -39 q27 -26 27 -67q0 -17 -5 -37q-76 -328 -99 -509q-10 -73 -10 -118q0 -66 21 -69q63 0 146.5 132t207.5 447q16 43 92 45h4q72 0 122 -59q-51 -408 -151.5 -744.5t-224.5 -527t-241 -190.5q-84 0 -227.5 53.5t-233.5 112.5z" />
<glyph unicode="&#x2c6;" horiz-adv-x="819" d="M66 893l346 625h98l182 -584q12 -41 -8 -67.5t-80 -16.5l-170 453l-250 -422q-25 -39 -65.5 -32t-52.5 44z" />
<glyph unicode="&#x2dc;" horiz-adv-x="733" d="M109 1055q27 59 80 92t98 33q59 0 118.5 -61.5t102.5 -61.5q35 0 74 57q31 0 42 -16.5t1 -40.5q-27 -59 -80 -92t-98.5 -33t-80 19.5t-53 42t-42 42t-46.5 19.5q-35 0 -73 -58q-31 0 -42 16.5t-1 41.5z" />
<glyph unicode="&#x2000;" horiz-adv-x="958" />
<glyph unicode="&#x2001;" horiz-adv-x="1918" />
<glyph unicode="&#x2002;" horiz-adv-x="958" />
<glyph unicode="&#x2003;" horiz-adv-x="1918" />
<glyph unicode="&#x2004;" horiz-adv-x="638" />
<glyph unicode="&#x2005;" horiz-adv-x="479" />
<glyph unicode="&#x2006;" horiz-adv-x="319" />
<glyph unicode="&#x2007;" horiz-adv-x="319" />
<glyph unicode="&#x2008;" horiz-adv-x="239" />
<glyph unicode="&#x2009;" horiz-adv-x="382" />
<glyph unicode="&#x200a;" horiz-adv-x="106" />
<glyph unicode="&#x2010;" horiz-adv-x="501" d="M31 422q2 31 12 53l377 -2q37 -2 47 -41t-10 -80l-346 -16q-43 0 -62.5 27.5t-17.5 58.5z" />
<glyph unicode="&#x2011;" horiz-adv-x="501" d="M31 422q2 31 12 53l377 -2q37 -2 47 -41t-10 -80l-346 -16q-43 0 -62.5 27.5t-17.5 58.5z" />
<glyph unicode="&#x2012;" horiz-adv-x="501" d="M31 422q2 31 12 53l377 -2q37 -2 47 -41t-10 -80l-346 -16q-43 0 -62.5 27.5t-17.5 58.5z" />
<glyph unicode="&#x2013;" horiz-adv-x="1013" d="M34 386q-7 50 21 89l889 -2q35 -2 37 -41t-20 -80l-857 -16q-63 0 -70 50z" />
<glyph unicode="&#x2014;" horiz-adv-x="2058" d="M35.5 395.5q-15.5 63.5 7.5 91.5q170 0 948 -3t951 -3q68 0 80 -19.5t-15 -103.5q-190 6 -1021.5 -10t-872.5 -16q-62 0 -77.5 63.5z" />
<glyph unicode="&#x2018;" horiz-adv-x="456" d="M117 1288q-35 86 14 210t186 210q33 18 56.5 3t23.5 -44q-98 -102 -106 -188t59 -127q20 -20 20.5 -54t-39.5 -65t-102 -31q-77 0 -112 86z" />
<glyph unicode="&#x2019;" horiz-adv-x="456" d="M102 1249q98 102 106.5 188.5t-58.5 127.5q-20 20 -20.5 54t39.5 64.5t101 30.5q78 0 113 -86t-14.5 -210t-186.5 -210q-33 -18 -56.5 -3t-23.5 44z" />
<glyph unicode="&#x201c;" horiz-adv-x="743" d="M119 1291q-31 93 19 221t179 208q33 16 56.5 1t23.5 -42q-180 -211 -71 -331q23 -25 23.5 -59t-30 -62.5t-92.5 -28.5q-77 0 -108 93zM407.5 1284q-34.5 86 14.5 210t186 210q33 18 56.5 3t23.5 -44q-98 -102 -106.5 -188t59.5 -127q20 -20 20.5 -54t-39.5 -65t-102 -31 q-78 0 -112.5 86z" />
<glyph unicode="&#x201d;" horiz-adv-x="743" d="M102 1249q98 102 106.5 188.5t-58.5 127.5q-20 20 -20.5 54t39.5 64.5t101 30.5q78 0 113 -86t-14.5 -210t-186.5 -210q-33 -18 -56.5 -3t-23.5 44zM393 1233q180 211 72 332q-23 25 -24 58.5t30 62t92 28.5q78 0 108.5 -93t-19.5 -221t-179 -208q-33 -16 -56.5 -1 t-23.5 42z" />
<glyph unicode="&#x201e;" horiz-adv-x="743" d="M102 -236q98 102 106.5 188.5t-58.5 127.5q-20 20 -20.5 54t39.5 64.5t101 30.5q78 0 113 -86t-14.5 -209.5t-186.5 -209.5q-33 -18 -56.5 -2.5t-23.5 42.5zM393 -252q180 211 72 332q-23 25 -24 58.5t30 62t92 28.5q78 0 108.5 -93t-19.5 -221t-179 -208 q-33 -16 -56.5 -1t-23.5 42z" />
<glyph unicode="&#x2022;" horiz-adv-x="729" d="M178 782q0 94 69.5 162t164.5 68q115 0 190.5 -62.5t75.5 -167.5q0 -113 -64.5 -195.5t-169.5 -82.5q-121 0 -193.5 73.5t-72.5 204.5z" />
<glyph unicode="&#x2026;" horiz-adv-x="1912" d="M178 92q0 55 33 97t84 42q59 0 96 -36.5t37 -102.5q0 -47 -35 -81t-82 -34q-57 0 -95 31t-38 84zM893 92q0 55 38 97t87 42q57 0 91 -31.5t34 -90.5q0 -55 -34 -93.5t-85 -38.5q-55 0 -92 31t-39 84zM1589 88q0 55 34 94t87 39q63 0 100 -34.5t37 -96.5q0 -47 -35.5 -80 t-85.5 -33q-57 0 -97 30t-40 81z" />
<glyph unicode="&#x202f;" horiz-adv-x="382" />
<glyph unicode="&#x2039;" horiz-adv-x="780" d="M98 534.5q6 26.5 29 38.5l504 289q43 -4 52 -41t-17 -51l-349 -246l320 -235q-8 -37 -35 -54.5t-49 -3.5l-442 242q-19 35 -13 61.5z" />
<glyph unicode="&#x203a;" horiz-adv-x="778" d="M99 248q-3 37 22 51l356 233l-307 283q8 37 42 56.5t54 2.5l402 -311q20 -61 -25 -86l-510 -278q-31 12 -34 49z" />
<glyph unicode="&#x205f;" horiz-adv-x="479" />
<glyph unicode="&#x20ac;" horiz-adv-x="825" d="M-17.5 535.5q-7.5 50.5 21.5 89.5h123q2 45 14 131l-73 -2q-63 0 -70.5 50t20.5 89h154q72 264 228.5 424t338.5 160q172 0 222.5 -142.5t-7 -284t-145.5 -141.5q-35 0 -55.5 13.5t-21.5 28t3 26.5q92 162 83 278.5t-105 116.5q-139 0 -227.5 -132t-127.5 -349h283 q35 -2 37 -41t-21 -80l-315 -10q-8 -90 -8 -137h231q35 -2 37 -41t-20 -80l-246 -8q23 -381 221 -381q51 0 97 29.5t108 107.5q39 -4 51 -30.5t-12 -57.5q-150 -188 -316 -189q-162 0 -260 142.5t-102 371.5l-70 -2q-63 0 -70.5 50.5z" />
<glyph unicode="&#x2122;" horiz-adv-x="976" d="M102 1420.5q-2 27.5 13 52.5q63 0 159.5 4t159.5 4q49 0 25 -62q-47 2 -125 -6q-2 -27 -10.5 -90t-15.5 -120.5t-14 -110t-7 -54.5q-37 -25 -86 -16q-18 6 -19 18l58 365q-59 -12 -111 -12q-25 0 -27 27.5zM414 1042l73 418q43 16 83 15.5t42 -21.5l27 -266l111 282 q20 6 48.5 8.5t52 -3t21.5 -17.5l-41 -428q-12 -4 -28.5 -5t-31.5 -1t-25.5 5t-8.5 13l33 291l-125 -303q-66 -16 -72 8l-43 295l-43 -303q-23 -8 -49 -6t-24 18z" />
<glyph unicode="&#xe000;" horiz-adv-x="880" d="M0 880h880v-880h-880v880z" />
<glyph unicode="&#xfb01;" horiz-adv-x="722" d="M413 288q-1 23 -1 47q0 161 59 408q74 31 118 32t55 -17.5t5 -46.5q-39 -168 -60.5 -284t-25.5 -198q-1 -16 -1 -31q0 -58 13 -87q16 -37 53 -37q82 0 150 166q23 18 51 8q22 -8 22 -26q0 -5 -1 -11q-29 -98 -103 -167t-162 -71q-72 0 -117 72t-55 243zM491 1010 q0 47 34 79.5t77 32.5q125 0 125 -114q0 -37 -24.5 -63.5t-58.5 -33.5q-17 -3 -34 -3t-35 3q-35 6 -59.5 33t-24.5 66zM-35 -653q10 369 49 790q-14 27 -28 70q-1 9 -1 17q0 56 46 95q55 528 153 1078q35 41 88 54q17 4 33 4q32 0 56 -18q26 -20 26 -57q0 -15 -4 -32 q-129 -592 -205 -1205q40 -62 85 -61q19 0 39 11q67 38 116 188q29 16 56 9q21 -6 21 -23q0 -5 -1 -11q-39 -133 -102.5 -201.5t-137.5 -72.5q58 -180 58 -317q0 -94 -27 -169q-68 -182 -250 -182q-39 0 -70 33zM94 -604q33 4 60.5 39t42.5 94q8 32 7 73q0 35 -5 77 q-12 91 -54 194z" />
<glyph unicode="&#xfb02;" horiz-adv-x="749" d="M387 372q0 124 23.5 299t62.5 370.5t96 443.5q20 20 47 20q12 0 25 -4q121 -35 153 -207q11 -58 11 -122q0 -127 -42 -281q-65 -231 -206 -426q-1 -33 -1 -64q0 -134 21 -222q27 -108 76 -107q80 0 150 168q35 16 58 7q16 -6 16 -22q0 -6 -3 -14q-41 -100 -109.5 -169 t-154.5 -69q-78 0 -129 45t-72.5 137.5t-21.5 216.5zM569 637q117 237 117 422q0 55 -10 106q-80 -280 -107 -528zM-35 -653q10 369 49 790q-14 27 -28 70q-1 9 -1 17q0 56 46 95q55 528 153 1078q35 41 88 54q17 4 33 4q32 0 56 -18q26 -20 26 -57q0 -15 -4 -32 q-129 -592 -205 -1205q40 -62 85 -61q19 0 39 11q67 38 116 188q29 16 56 9q21 -6 21 -23q0 -5 -1 -11q-39 -133 -102.5 -201.5t-137.5 -72.5q58 -180 58 -317q0 -94 -27 -169q-68 -182 -250 -182q-39 0 -70 33zM94 -604q33 4 60.5 39t42.5 94q8 32 7 73q0 35 -5 77 q-12 91 -54 194z" />
<glyph unicode="&#xfb03;" horiz-adv-x="1077" d="M768 288q-1 23 -1 47q0 161 59 408q74 31 118 32t55 -17.5t5 -46.5q-39 -168 -60.5 -284t-25.5 -198q-1 -16 -1 -31q0 -58 13 -87q16 -37 53 -37q82 0 150 166q23 18 51 8q22 -8 22 -26q0 -5 -1 -11q-29 -98 -103 -167t-162 -71q-72 0 -117 72t-55 243zM846 1010 q0 47 34 79.5t77 32.5q125 0 125 -114q0 -37 -24.5 -63.5t-58.5 -33.5q-17 -3 -34 -3t-35 3q-35 6 -59.5 33t-24.5 66zM319 -653q10 369 49 790q-14 27 -28 70q-1 9 -1 17q0 56 46 95q55 528 153 1078q35 41 88 54q17 4 33 4q32 0 56 -18q26 -20 26 -57q0 -15 -4 -32 q-129 -592 -205 -1205q40 -62 85 -61q19 0 39 11q67 38 116 188q29 16 56 9q21 -6 21 -23q0 -5 -1 -11q-39 -133 -102.5 -201.5t-137.5 -72.5q58 -180 58 -317q0 -94 -27 -169q-68 -182 -250 -182q-39 0 -70 33zM448 -604q33 4 60.5 39t42.5 94q8 32 7 73q0 35 -5 77 q-12 91 -54 194zM-35 -653q10 369 49 790q-14 27 -28 70q-1 9 -1 17q0 56 46 95q55 528 153 1078q35 41 88 54q17 4 33 4q32 0 56 -18q26 -20 26 -57q0 -15 -4 -32q-129 -592 -205 -1205q40 -62 85 -61q19 0 39 11q67 38 116 188q29 16 56 9q21 -6 21 -23q0 -5 -1 -11 q-39 -133 -102.5 -201.5t-137.5 -72.5q58 -180 58 -317q0 -94 -27 -169q-68 -182 -250 -182q-39 0 -70 33zM94 -604q33 4 60.5 39t42.5 94q8 32 7 73q0 35 -5 77q-12 91 -54 194z" />
<glyph unicode="&#xfb04;" horiz-adv-x="1103" d="M742 372q0 124 23.5 299t62.5 370.5t96 443.5q20 20 47 20q12 0 25 -4q121 -35 153 -207q11 -58 11 -122q0 -127 -42 -281q-65 -231 -206 -426q-1 -33 -1 -64q0 -134 21 -222q27 -108 76 -107q80 0 150 168q35 16 58 7q16 -6 16 -22q0 -6 -3 -14q-41 -100 -109.5 -169 t-154.5 -69q-78 0 -129 45t-72.5 137.5t-21.5 216.5zM924 637q117 237 117 422q0 55 -10 106q-80 -280 -107 -528zM319 -653q10 369 49 790q-14 27 -28 70q-1 9 -1 17q0 56 46 95q55 528 153 1078q35 41 88 54q17 4 33 4q32 0 56 -18q26 -20 26 -57q0 -15 -4 -32 q-129 -592 -205 -1205q40 -62 85 -61q19 0 39 11q67 38 116 188q29 16 56 9q21 -6 21 -23q0 -5 -1 -11q-39 -133 -102.5 -201.5t-137.5 -72.5q58 -180 58 -317q0 -94 -27 -169q-68 -182 -250 -182q-39 0 -70 33zM448 -604q33 4 60.5 39t42.5 94q8 32 7 73q0 35 -5 77 q-12 91 -54 194zM-35 -653q10 369 49 790q-14 27 -28 70q-1 9 -1 17q0 56 46 95q55 528 153 1078q35 41 88 54q17 4 33 4q32 0 56 -18q26 -20 26 -57q0 -15 -4 -32q-129 -592 -205 -1205q40 -62 85 -61q19 0 39 11q67 38 116 188q29 16 56 9q21 -6 21 -23q0 -5 -1 -11 q-39 -133 -102.5 -201.5t-137.5 -72.5q58 -180 58 -317q0 -94 -27 -169q-68 -182 -250 -182q-39 0 -70 33zM94 -604q33 4 60.5 39t42.5 94q8 32 7 73q0 35 -5 77q-12 91 -54 194z" />
</font>
</defs>
</svg>
